<svg width="1208" height="2699" viewBox="0 0 1208 2699" fill="none" xmlns="http://www.w3.org/2000/svg">
<path d="M1.33594 2003.24V2354.29L607.248 2698.76V2351.02L1.33594 2003.24Z" fill="#F2F2F2"/>
<path d="M382.827 1530.11L1.33594 2003.24L607.248 2351.01V1655.47L382.827 1530.11Z" fill="#FEFEFE"/>
<path d="M382.676 1359L382.828 1530.11L607.248 1655.47V1488.12L382.676 1359Z" fill="#F2F2F2"/>
<path d="M234.195 1186.16V1273.66L607.248 1488.12V1401.75L234.195 1186.16Z" fill="#FAFAFA"/>
<path d="M381.947 1098.66L234.195 1186.16L607.248 1401.75L980.241 1186.98L829.909 1098.39V1185.34L609.616 1314.95L381.674 1186.16L381.947 1098.66Z" fill="#E6E6E6"/>
<path d="M381.947 1098.66L381.674 1186.16L609.616 1314.95L607.248 1229.49L381.947 1098.66Z" fill="#D1D1D1"/>
<path d="M306.826 1055.62L607.248 1229.49L607.218 841.551L306.826 668.469V1055.62Z" fill="white"/>
<path d="M607.247 1229.49L907.062 1053.98V668.469L607.217 841.551L607.247 1229.49Z" fill="#A6A6A6"/>
<path d="M609.615 1314.95L829.909 1185.34V1098.39L607.248 1229.48L609.615 1314.95Z" fill="#737373"/>
<path d="M607.248 2698.76L1205.82 2351.02V2003.24L607.248 2351.02V2698.76Z" fill="#737373"/>
<path d="M607.248 1655.47L829.908 1530.11L1205.82 2003.24L607.248 2351.01V1655.47Z" fill="#A6A6A6"/>
<path d="M829.909 1353.96V1530.11L607.248 1655.47V1488.12L829.909 1353.96Z" fill="#727272"/>
<path d="M607.248 1401.75V1488.12L980.241 1263.4V1186.98L607.248 1401.75Z" fill="#A6A6A6"/>
<g style="mix-blend-mode:screen" opacity="0.3">
<path d="M829.909 1530.11V1353.96L607.248 1488.12L382.676 1359L382.827 1530.11L1.33594 2003.24V2354.29L607.248 2698.76L1205.82 2351.01V2003.24L829.909 1530.11Z" fill="#F2049F"/>
<path d="M980.241 1186.98L830.546 1098.76L907.063 1053.95V579.055L607.218 751.287L754.545 665.156L907.063 579.025L946.126 276.367L980.878 257.908V214.038L941.512 191.086L907.063 214.038V256.693L920.569 265.376L754.545 496.173L620.057 76.9321L645.491 60.6895V21.3127L606.945 0L568.398 21.3127V66.4276L593.074 78.5108L457.037 494.594L565.515 495.201L565.181 495.717L457.037 495.414L292.805 265.832L306.826 258.363V214.068L272.378 191.116L234.651 214.068V260.822L268.28 278.856L275.838 274.849L306.826 579.055V1055.59L381.583 1098.85L234.195 1186.13V1273.63L607.218 1488.12L980.241 1263.4V1186.98ZM754.545 496.233L648.618 495.93L648.435 495.626L754.545 496.203V496.233Z" fill="#F2049F"/>
</g>
<path d="M306.826 579.055V668.465L607.218 841.547V751.317L457.037 665.186L306.826 579.055Z" fill="#F7D16C"/>
<path d="M278.962 246.461L457.037 665.186L306.826 579.055L275.684 273.117L278.962 246.461Z" fill="#FFEDAB"/>
<path d="M457.037 494.598L606.944 36.1016L754.545 496.237L457.037 494.598Z" fill="#E9A94F"/>
<path d="M754.545 496.234L457.037 495.414V665.187H754.545V496.234Z" fill="#FFD96E"/>
<path d="M568.428 21.3125V66.4273L606.944 85.3112V43.4752L568.428 21.3125Z" fill="#FCEEC9"/>
<path d="M606.944 0L568.428 21.3127L606.944 43.4755L645.491 21.3127L606.944 0Z" fill="#FFD966"/>
<path d="M606.943 85.3112L645.49 60.6893V21.3125L606.943 43.4752V85.3112Z" fill="#B8823A"/>
<path d="M754.545 496.231V665.184L953.44 219.742L754.545 496.231Z" fill="#FFEDAB"/>
<path d="M907.062 579.053L754.545 665.184L953.44 219.742L907.062 579.053Z" fill="#A37738"/>
<path d="M457.038 495.413L278.963 246.461L457.038 665.186V495.413Z" fill="#E9A94F"/>
<path d="M457.037 579.056L606.944 655.897L754.545 584.825L605.791 496.234L457.037 579.056Z" fill="#A37738"/>
<path d="M607.218 751.317L457.037 665.185L607.218 429.805V751.317Z" fill="#FFEDAB"/>
<path d="M754.544 665.185L607.217 429.805V751.317L754.544 665.185Z" fill="#A37738"/>
<path d="M568.428 405.188V455.828L607.217 472.435V429.809L568.428 405.188Z" fill="#FCEEC9"/>
<path d="M607.217 387.148L568.428 405.182L607.217 429.804L645.491 405.182L607.217 387.148Z" fill="#FFD966"/>
<path d="M645.49 450.302L607.217 472.435V429.809L645.49 405.188V450.302Z" fill="#B8823A"/>
<path d="M907.062 579.055V668.465L607.217 841.547V751.317L907.062 579.055Z" fill="#866230"/>
<path d="M234.68 214.07V260.825L268.309 278.889L272.407 237.053L234.68 214.07Z" fill="#FCEEC9"/>
<path d="M272.407 191.117L234.68 214.069L272.407 237.052L306.826 214.069L272.407 191.117Z" fill="#F7D967"/>
<path d="M306.825 258.365L268.309 278.889L272.406 237.053L306.825 214.07V258.365Z" fill="#B8823A"/>
<path d="M941.512 237.053V278.889L980.878 257.971V214.07L941.512 237.053Z" fill="#B8823A"/>
<path d="M941.512 191.117L907.062 214.069L941.512 237.052L980.878 214.069L941.512 191.117Z" fill="#F7D967"/>
<path d="M907.062 256.726L941.512 278.889V237.053L907.062 214.07V256.726Z" fill="#FCEEC9"/>
</svg>
