<?xml version="1.0" standalone="no"?>
<!DOCTYPE svg PUBLIC "-//W3C//DTD SVG 20010904//EN"
 "http://www.w3.org/TR/2001/REC-SVG-20010904/DTD/svg10.dtd">
<svg version="1.0" xmlns="http://www.w3.org/2000/svg"
 width="1024.000000pt" height="1024.000000pt" viewBox="0 0 1024.000000 1024.000000"
 preserveAspectRatio="xMidYMid meet">

<g transform="translate(0.000000,1024.000000) scale(0.100000,-0.100000)"
fill="#000000" stroke="none">
<path d="M5090 9266 c0 -2 7 -9 15 -16 9 -7 15 -8 15 -2 0 5 -7 12 -15 16 -8
3 -15 4 -15 2z"/>
<path d="M5135 9150 c-4 -6 3 -10 14 -10 25 0 27 6 6 13 -8 4 -17 2 -20 -3z"/>
<path d="M5059 9105 c-24 -19 -44 -39 -44 -44 0 -5 -17 -21 -38 -35 -21 -14
-70 -54 -110 -89 -40 -34 -100 -82 -134 -106 -35 -24 -63 -48 -63 -52 0 -5 -6
-9 -12 -9 -7 -1 -24 -11 -38 -23 -14 -12 -23 -21 -22 -20 4 1 54 -35 130 -93
17 -14 32 -29 32 -33 0 -7 -130 -61 -147 -61 -3 0 1 8 8 18 9 11 5 10 -11 -4
-14 -12 -32 -21 -40 -21 -8 0 -35 -14 -60 -31 -70 -50 -150 -73 -292 -84 -70
-6 -128 -15 -128 -19 0 -4 -22 -15 -50 -24 -32 -10 -50 -22 -50 -32 0 -19 -23
-39 -67 -59 -18 -8 -33 -18 -33 -23 0 -5 -19 -12 -41 -16 -23 -4 -60 -16 -83
-26 -30 -13 -67 -19 -136 -20 -74 -1 -87 -3 -60 -10 24 -5 7 -7 -50 -4 -47 3
-101 5 -120 5 -63 1 -9 19 96 32 95 12 97 13 54 21 -28 5 -73 3 -117 -4 -75
-12 -138 -3 -78 11 17 4 58 8 93 9 34 0 62 6 62 11 0 12 -43 12 -178 0 -86 -8
-116 -15 -175 -44 -75 -36 -181 -101 -207 -128 -9 -8 -30 -23 -48 -32 -18 -9
-32 -19 -32 -22 0 -2 13 2 30 11 36 19 40 19 40 1 0 -8 6 -16 13 -19 19 -7
201 54 224 75 25 23 47 26 251 33 168 5 174 5 179 -15 4 -17 14 -20 53 -20 29
0 54 6 63 14 8 8 45 22 82 31 37 8 82 22 99 29 29 13 50 21 68 25 4 1 51 24
105 50 54 27 108 51 121 55 13 5 21 10 19 13 -3 2 -49 -15 -103 -38 -108 -46
-316 -121 -321 -115 -8 8 80 59 143 82 134 50 470 154 496 154 5 0 8 -26 8
-59 l0 -58 -67 -18 c-132 -35 -260 -83 -394 -149 -115 -56 -138 -70 -142 -92
-6 -35 10 -39 83 -18 43 12 59 21 56 30 -6 17 -5 17 31 3 28 -10 27 -11 -39
-40 l-68 -30 -253 -5 c-139 -2 -266 -9 -282 -14 -23 -7 -13 -9 41 -5 68 6 71
5 82 -20 7 -14 15 -43 18 -63 6 -37 5 -39 -49 -74 -55 -37 -167 -130 -260
-218 -70 -65 -72 -65 -98 -24 l-22 37 69 63 c38 35 96 83 128 106 32 24 79 61
103 83 l44 40 -29 28 c-34 32 -59 28 -65 -11 l-3 -27 -12 25 -12 25 5 -28 c4
-19 2 -26 -5 -22 -5 3 -10 2 -10 -3 0 -5 -17 -21 -38 -34 -20 -14 -80 -61
-133 -105 -83 -71 -97 -79 -107 -64 -9 14 -11 12 -11 -12 -1 -20 -25 -55 -92
-130 -85 -95 -203 -246 -244 -310 l-18 -29 -41 48 c-23 27 -42 52 -42 56 -1 4
-2 13 -3 19 -1 8 -6 7 -16 -1 -13 -11 -21 -8 -50 20 -19 19 -35 40 -35 48 0
11 -3 12 -14 3 -11 -9 -25 -2 -67 34 -29 25 -57 45 -62 45 -14 0 54 -73 182
-196 l116 -112 -16 -28 c-9 -16 -17 -41 -17 -55 0 -14 -16 -47 -37 -75 -40
-51 -143 -257 -193 -384 -46 -116 -133 -391 -135 -427 -1 -18 2 -32 8 -32 5 0
12 -7 15 -17 4 -10 22 46 44 132 48 186 81 280 163 464 82 183 155 321 168
317 5 -2 17 -15 24 -29 14 -24 13 -29 -13 -62 -25 -33 -25 -41 -3 -37 4 1 1
-12 -8 -29 -9 -16 -18 -30 -21 -30 -2 0 0 9 6 19 5 11 10 23 10 28 -1 12 -31
-46 -35 -68 -2 -11 -13 -33 -25 -49 -11 -16 -19 -32 -18 -37 1 -4 -17 -48 -40
-98 -78 -163 -195 -580 -215 -765 l-12 -105 -45 -6 c-29 -4 -20 -5 28 -3 71 4
78 1 66 -30 -5 -13 -18 -16 -68 -12 -33 2 -50 2 -36 -1 14 -2 42 -9 63 -14
l39 -10 -3 -174 c-2 -96 -1 -177 3 -180 7 -8 -3 -55 -12 -55 -16 0 -51 -70
-45 -89 9 -28 -10 -35 -46 -17 l-32 16 7 -65 c4 -36 8 -70 10 -77 1 -7 1 -10
-1 -6 -2 4 -13 -2 -24 -13 -23 -23 -69 -25 -108 -4 -40 20 -93 133 -89 191 2
23 7 40 12 37 4 -3 12 1 17 8 4 7 18 14 31 14 26 0 24 -19 20 236 l-2 131 -33
-6 c-28 -5 -40 -1 -67 23 l-33 28 67 104 c38 57 78 115 91 129 15 17 28 53 39
115 29 150 35 173 97 366 l60 187 38 6 c22 3 41 13 45 22 5 14 1 16 -33 10
l-40 -6 16 37 c8 21 42 94 74 162 33 68 58 126 56 127 -2 2 -39 -69 -82 -157
-44 -89 -90 -169 -102 -179 -13 -10 -23 -22 -23 -28 0 -5 -7 -13 -16 -16 -15
-6 -15 -8 -1 -24 15 -17 13 -29 -36 -170 -28 -84 -56 -152 -61 -152 -5 0 -24
17 -42 38 -80 91 -92 102 -45 41 28 -37 51 -71 51 -77 0 -5 7 -15 15 -22 26
-21 19 -42 -13 -37 -15 2 -21 2 -14 0 6 -3 12 -5 12 -6 0 -1 -7 -27 -15 -57
-19 -71 -19 -100 0 -100 23 0 18 -15 -18 -63 -17 -23 -54 -82 -82 -131 -27
-48 -80 -134 -117 -191 -66 -103 -67 -104 -110 -107 -40 -3 -43 -5 -43 -33 0
-34 10 -45 42 -45 43 0 70 -22 94 -73 13 -29 52 -88 86 -133 90 -118 103 -143
103 -193 0 -27 6 -48 15 -55 11 -8 16 -34 18 -90 l2 -78 -47 -15 c-49 -14 -59
-31 -37 -63 8 -12 9 -12 7 4 -2 15 5 22 32 28 19 4 40 6 47 3 16 -5 51 -103
62 -177 6 -34 16 -68 23 -75 11 -10 14 -2 16 41 2 29 7 66 11 82 8 27 9 26 16
-21 6 -34 4 -50 -4 -53 -6 -2 -11 -24 -11 -51 0 -41 5 -51 39 -85 37 -36 51
-74 57 -146 0 -8 8 -32 17 -54 19 -43 22 -66 8 -66 -15 0 -40 41 -34 56 3 8 0
14 -6 14 -6 0 -11 -6 -11 -14 0 -15 -202 -324 -240 -366 l-22 -25 52 -3 c40
-2 49 -6 41 -16 -13 -15 17 -126 34 -126 6 0 16 -9 23 -20 7 -12 17 -18 22
-15 6 3 10 0 10 -8 0 -17 38 -67 51 -67 20 0 6 24 -46 79 -30 31 -62 74 -70
95 -16 37 -15 39 16 94 17 30 55 87 84 126 29 39 56 81 59 93 4 11 14 27 22
34 13 11 15 10 12 -7 -1 -10 2 -18 9 -17 6 1 17 -4 23 -12 9 -11 10 -15 1 -15
-7 0 -9 -5 -5 -11 3 -6 17 -8 31 -4 21 5 19 -1 -26 -60 -28 -37 -51 -69 -52
-73 0 -4 -2 -14 -5 -22 -14 -54 -15 -70 -5 -70 14 0 14 -33 0 -47 -14 -14 8
-13 30 2 8 4 -4 -26 -27 -68 -23 -42 -42 -81 -42 -87 0 -21 18 -8 50 37 60 86
199 240 234 263 21 13 47 20 65 18 l30 -3 -80 -93 c-45 -50 -86 -92 -91 -92
-6 0 -30 -18 -54 -40 -44 -41 -47 -53 -6 -24 27 19 38 13 24 -13 -8 -15 -7
-22 6 -30 10 -6 71 -82 136 -169 66 -88 125 -164 133 -170 19 -16 16 -23 -7
-17 -11 3 -20 3 -20 0 0 -19 226 -244 236 -235 3 4 7 19 7 34 0 25 2 23 53
-27 30 -29 54 -55 54 -57 0 -2 -24 -29 -52 -60 -29 -31 -36 -42 -15 -23 35 33
37 34 56 17 20 -18 20 -18 -12 -44 -39 -32 -47 -43 -47 -61 0 -10 9 -6 28 11
53 50 65 51 110 13 24 -21 51 -35 67 -35 29 0 65 -16 65 -29 0 -5 34 -42 75
-82 l75 -72 0 -220 0 -220 138 7 c75 4 148 8 163 9 18 2 26 8 27 25 1 14 -4
22 -14 22 -8 0 -13 -4 -10 -8 3 -5 -8 -6 -24 -4 -29 4 -90 -16 -90 -30 0 -5
-34 -8 -75 -8 l-75 0 0 189 c0 105 4 192 8 195 5 3 36 -14 70 -36 l62 -41 0
-123 0 -124 71 0 c53 0 75 4 83 15 12 17 141 34 250 35 54 0 69 -5 150 -51 50
-29 93 -55 96 -59 9 -13 55 -20 83 -12 26 7 24 8 -32 35 -46 22 -58 32 -54 46
4 17 11 15 78 -18 72 -35 91 -51 60 -51 -29 0 -14 -15 60 -62 76 -48 96 -71
78 -89 -7 -7 -23 -3 -47 12 -49 29 -56 18 -12 -17 l35 -29 -32 -34 c-25 -26
-27 -31 -9 -22 12 6 22 16 22 21 0 22 43 21 73 -1 l32 -23 -21 26 c-14 18 -19
36 -16 57 2 17 7 31 10 31 3 0 46 -23 96 -51 79 -45 92 -50 114 -39 l25 11
-29 18 c-16 10 -35 26 -43 35 -13 15 -13 19 0 27 9 7 -2 8 -33 3 -51 -7 -57
-2 -33 23 22 21 16 33 -38 73 -32 24 -47 42 -47 58 0 22 1 22 30 7 17 -9 62
-36 100 -61 43 -27 96 -52 137 -62 77 -20 149 -55 146 -71 -2 -6 24 -29 57
-51 63 -43 81 -50 59 -23 -8 9 5 4 29 -12 26 -17 38 -31 32 -35 -7 -4 -2 -13
14 -23 32 -21 42 -22 22 -1 -9 9 -16 32 -16 55 0 21 -5 39 -11 39 -5 0 -7 -5
-4 -10 3 -6 5 -10 3 -10 -9 0 -73 51 -73 58 0 4 -15 22 -33 40 -18 18 -30 32
-27 32 3 0 -1 10 -9 22 -21 29 -20 35 5 43 16 5 18 9 9 15 -8 5 -15 16 -16 25
-2 15 -1 15 17 -1 10 -9 22 -14 26 -10 11 10 -46 55 -155 123 -52 32 -109 73
-129 90 -19 18 -39 30 -44 27 -13 -8 -3 -20 51 -63 27 -21 46 -42 42 -46 -4
-4 -2 -5 3 -3 13 4 49 -23 53 -41 2 -9 -3 -11 -14 -7 -9 3 -23 1 -31 -5 -10
-9 -17 -9 -25 -1 -7 7 -22 12 -34 12 -12 0 -27 7 -34 15 -17 21 -34 19 -26 -2
6 -17 5 -17 -7 -1 -8 10 -16 15 -19 13 -3 -3 -17 6 -32 20 -15 14 -43 32 -62
40 -33 13 -34 16 -34 67 0 30 4 58 9 64 5 5 12 19 16 32 5 16 2 22 -10 22 -21
0 -216 79 -235 96 -8 7 -46 21 -85 31 -68 17 -69 18 -35 24 19 3 29 7 21 8 -8
0 -12 3 -10 6 3 2 42 -9 87 -25 115 -41 496 -124 608 -132 23 -1 30 -6 27 -18
-12 -46 82 -165 216 -275 65 -53 80 -60 87 -38 3 10 10 26 15 35 5 10 9 24 9
32 0 9 32 34 71 57 81 47 149 110 149 138 0 15 10 20 51 26 l51 7 -5 43 c-6
41 -5 43 23 49 17 3 65 8 108 12 76 6 78 6 111 -25 31 -28 34 -36 33 -81 0
-28 3 -48 7 -45 9 5 21 -29 26 -72 2 -17 -6 -24 -38 -37 -23 -9 -58 -26 -77
-38 -19 -12 -37 -23 -40 -23 -18 -4 -108 -53 -124 -67 -11 -10 -23 -18 -26
-18 -4 0 -13 -11 -20 -25 -7 -13 -16 -22 -21 -20 -4 3 -9 2 -11 -2 -1 -5 -23
-19 -48 -32 -25 -14 -56 -35 -70 -48 -14 -13 -51 -40 -82 -60 -31 -20 -59 -44
-61 -54 -3 -11 -16 -19 -37 -21 -38 -3 -57 -27 -45 -54 4 -11 8 -22 7 -26 -1
-4 6 -4 15 -1 11 5 14 3 8 -6 -4 -8 3 -6 18 4 14 9 24 22 21 28 -4 12 56 57
75 57 14 0 72 70 66 80 -3 6 1 7 9 4 14 -6 106 58 115 80 9 21 83 86 92 81 5
-4 9 -2 9 2 0 13 138 89 183 101 l37 10 0 -33 c0 -19 5 -37 10 -40 17 -11 11
-19 -28 -38 -20 -9 -51 -36 -68 -60 -19 -25 -73 -70 -135 -111 -57 -38 -112
-78 -122 -88 -10 -10 -51 -40 -92 -68 -41 -28 -102 -75 -136 -105 -72 -64 -98
-75 -112 -49 -19 36 -163 171 -232 217 -77 52 -79 60 -6 23 50 -26 145 -99
223 -174 l47 -45 71 59 c38 32 87 71 108 86 20 15 36 32 34 38 -1 5 1 9 5 8
15 -4 92 47 97 64 4 18 -5 24 -18 11 -3 -4 -15 -7 -24 -8 -10 -1 -55 -27 -99
-59 -45 -32 -84 -58 -88 -57 -3 1 -22 -12 -43 -29 l-36 -30 -23 24 c-12 14
-32 27 -43 31 -11 3 -20 11 -20 16 0 6 -4 7 -10 4 -6 -3 -10 -2 -10 3 0 11
-129 96 -147 97 -6 0 -15 4 -20 9 -5 5 -2 6 6 1 9 -5 12 -4 7 3 -9 15 -46 16
-46 2 0 -5 22 -21 48 -34 27 -13 54 -31 61 -40 16 -19 -97 43 -196 107 -87 57
-114 60 -54 6 25 -22 50 -38 57 -35 8 3 16 0 20 -6 5 -7 2 -8 -7 -3 -8 5 -11
4 -6 -1 5 -5 16 -9 25 -9 9 0 17 -6 17 -13 0 -6 26 -32 58 -57 87 -69 73 -92
-32 -50 -35 14 -65 24 -67 22 -7 -6 38 -42 131 -105 50 -33 123 -88 162 -121
40 -34 78 -61 83 -61 6 0 46 28 89 63 43 34 127 100 186 146 99 78 106 86 86
95 -12 5 -20 12 -19 16 5 11 270 189 409 273 145 88 183 105 203 87 12 -9 13
-7 9 8 -7 28 27 32 273 32 l214 0 -1 43 c-1 23 -4 53 -8 67 -8 28 -1 34 125
101 l72 37 6 -45 c10 -77 7 -258 -5 -270 -8 -8 -5 -14 11 -23 12 -6 23 -10 25
-8 2 2 5 94 6 206 4 197 3 202 -16 202 -11 -1 -38 -9 -60 -20 -25 -12 -62 -20
-100 -20 -94 -1 -230 -35 -320 -81 -44 -23 -82 -44 -85 -48 -13 -16 -104 -52
-195 -76 -55 -15 -111 -33 -125 -40 -47 -23 -77 -26 -84 -9 -5 13 -2 15 13 11
11 -3 21 -2 23 2 6 12 154 74 177 73 13 0 19 3 13 7 -6 3 11 23 41 45 36 27
44 37 27 32 -42 -12 -234 -46 -258 -46 -13 0 -22 5 -20 13 1 6 -3 21 -9 32 -5
11 -13 32 -17 47 -6 25 -3 28 31 37 217 56 317 83 357 96 26 9 50 14 54 11 3
-3 -3 -6 -14 -6 -16 0 -16 -2 -4 -10 12 -7 11 -10 -5 -16 -95 -34 -253 -111
-285 -139 -8 -7 -31 -18 -50 -23 l-35 -10 40 -1 c95 -2 231 54 323 133 55 47
96 57 147 36 19 -7 18 -9 -8 -19 -16 -6 -33 -11 -38 -11 -6 0 -32 -9 -58 -20
-31 -14 -47 -27 -48 -40 -1 -11 2 -20 8 -20 5 0 9 5 9 11 0 5 4 8 9 4 14 -8
93 25 111 46 8 10 34 25 57 34 24 10 40 21 37 26 -3 5 2 9 10 9 11 0 16 9 15
28 0 20 -2 22 -7 10 -5 -13 -11 -15 -22 -8 -8 5 -41 10 -73 10 -71 0 -71 12
-2 49 33 17 66 26 95 26 37 0 45 3 45 18 0 10 7 22 15 27 9 6 10 10 3 10 -7 0
-9 9 -4 27 5 20 27 40 72 68 53 34 71 40 112 38 47 -1 48 -1 25 15 -12 8 -46
37 -75 64 -28 26 -56 48 -61 48 -6 0 -17 20 -25 44 -14 40 -14 45 0 50 40 16
66 5 119 -49 30 -31 54 -51 54 -46 0 10 74 51 92 51 4 0 8 -8 9 -17 0 -11 3
-13 6 -5 5 12 33 18 33 6 0 -16 -23 -44 -36 -44 -8 0 -13 -4 -10 -9 4 -7 -34
-31 -49 -31 -7 0 18 54 33 73 26 31 -3 18 -31 -14 -30 -35 -34 -57 -12 -65 8
-4 15 -17 15 -31 0 -14 17 -56 38 -94 l37 -68 -26 -26 c-24 -25 -25 -28 -14
-78 6 -29 16 -62 23 -74 10 -18 10 -23 1 -23 -7 0 -9 -3 -6 -7 10 -10 57 38
57 57 0 12 19 24 56 39 31 11 61 21 67 21 7 0 48 21 92 46 44 25 85 46 90 47
6 1 12 7 15 13 7 16 246 244 256 244 5 1 25 20 44 44 19 24 85 102 145 174
151 179 207 252 195 252 -5 0 -10 5 -10 11 0 6 7 9 15 5 18 -7 20 5 3 23 -11
11 -10 13 5 8 11 -4 16 -3 12 3 -3 6 -16 8 -29 4 -27 -6 -50 17 -52 52 -1 35
11 30 64 -25 l47 -50 38 28 c34 26 36 30 21 42 -9 8 -27 12 -40 11 -28 -4
-116 60 -162 117 -17 21 -50 53 -73 72 -38 30 -41 31 -29 8 l13 -24 -26 24
c-31 28 -27 38 32 96 23 21 41 48 41 60 1 11 7 31 15 45 l14 25 1 -30 c0 -16
4 -36 9 -44 7 -11 12 -9 24 10 24 36 66 135 72 168 3 16 13 49 23 73 40 93
110 328 152 511 21 90 24 97 47 97 13 0 26 -6 29 -14 8 -22 -14 -126 -67 -319
-51 -185 -82 -274 -118 -345 -28 -56 -20 -92 20 -92 26 0 29 4 29 30 0 16 23
91 50 165 28 74 50 142 50 151 0 8 4 13 8 10 9 -5 42 88 42 115 0 11 -2 11
-10 -1 -8 -12 -10 -11 -10 7 0 16 4 21 15 17 11 -5 15 1 15 17 0 20 -2 21 -11
9 -8 -12 -9 -10 -5 10 3 14 6 36 7 50 1 19 3 17 8 -10 6 -35 7 -35 19 -12 10
18 26 118 32 200 0 1 18 2 39 2 24 0 41 5 44 14 3 7 18 17 33 20 43 11 112 63
218 166 118 114 201 208 192 217 -4 4 -77 -64 -164 -150 -137 -136 -163 -159
-207 -172 -66 -19 -135 -20 -135 -1 0 18 -47 56 -70 56 -10 0 -23 7 -30 15
-11 13 -15 11 -33 -11 -26 -33 -38 -16 -30 43 4 29 2 43 -6 43 -6 0 -20 9 -31
20 -16 16 -20 17 -20 5 0 -18 -14 -19 -41 -5 -32 17 -22 28 37 40 40 8 63 9
79 2 31 -14 35 -8 19 36 -9 25 -13 91 -14 200 l0 162 -32 0 -32 0 21 20 c12
10 25 30 29 42 4 13 14 28 22 34 12 9 13 19 4 60 -20 91 -35 194 -29 200 12
12 37 -6 37 -26 0 -23 16 -25 73 -9 28 7 37 14 33 26 -3 8 -9 39 -12 69 l-7
54 64 2 64 1 -65 6 -65 6 -23 85 c-13 47 -37 120 -53 162 -16 42 -29 86 -29
97 0 11 -11 41 -25 67 -29 54 -34 84 -11 65 8 -7 30 -11 48 -9 29 3 33 7 36
33 3 33 -14 63 -38 65 -39 5 -59 -1 -62 -20 -3 -17 -6 -18 -28 -7 -17 8 -43
48 -80 122 -93 186 -200 386 -200 375 0 -11 59 -145 125 -285 96 -202 135
-296 175 -420 24 -71 49 -138 57 -147 8 -9 24 -64 36 -122 23 -116 17 -140
-31 -134 -23 3 -27 11 -48 103 -50 223 -128 439 -240 662 -59 117 -110 211
-113 209 -4 -3 -28 37 -53 87 -108 210 -375 514 -645 734 -80 65 -94 73 -112
63 -37 -19 -26 -52 31 -90 70 -47 242 -195 297 -256 25 -27 81 -88 125 -135
71 -75 156 -185 210 -271 17 -26 17 -27 -21 -52 -37 -26 -38 -26 -53 -8 -8 11
-57 73 -108 140 -123 159 -341 385 -457 472 l-93 70 9 37 c5 21 9 53 9 71 0
20 4 31 10 27 6 -4 10 42 10 129 l0 136 38 0 c46 0 107 -28 155 -70 l37 -32
-25 -32 -24 -32 105 -94 c257 -231 462 -461 545 -613 l26 -49 -18 -60 c-11
-33 -18 -72 -18 -86 1 -21 2 -22 6 -7 2 11 12 40 21 64 13 36 17 40 23 25 6
-15 8 -12 8 12 1 17 4 34 8 38 4 3 8 12 9 19 12 59 23 84 54 124 16 20 18 21
33 5 10 -9 17 -13 17 -10 0 4 -7 14 -16 23 -9 9 -14 18 -11 21 11 12 44 -16
82 -70 36 -50 65 -71 65 -47 0 5 56 57 125 115 68 59 127 112 131 119 8 12
-52 -37 -183 -150 -40 -35 -75 -63 -78 -63 -7 0 -62 62 -98 111 -32 43 -62 60
-52 29 4 -14 -7 -40 -36 -85 -24 -36 -46 -65 -49 -65 -3 0 -14 15 -25 33 -40
69 -126 175 -200 250 -42 42 -80 77 -84 77 -10 1 -231 216 -231 226 0 5 -25
22 -56 38 -42 22 -53 33 -48 45 4 9 7 28 7 42 0 25 1 25 19 7 10 -10 22 -18
26 -18 4 0 25 -17 46 -37 30 -30 39 -34 47 -22 13 20 13 21 -36 58 -24 19 -42
38 -40 41 2 4 -40 50 -94 102 l-98 96 71 66 71 66 105 -107 c58 -60 113 -119
122 -133 17 -25 17 -25 17 -2 1 15 -34 59 -114 141 l-116 119 32 36 c63 72 12
33 -96 -74 -115 -113 -147 -131 -159 -87 -3 12 -6 75 -6 140 0 76 -4 116 -10
112 -6 -4 -10 -60 -10 -136 0 -158 -18 -176 -22 -21 l-3 107 -102 3 c-79 2
-103 0 -103 -10 0 -10 23 -12 95 -10 66 2 95 0 95 -8 0 -8 -34 -10 -115 -8
-104 3 -116 1 -121 -15 -3 -10 0 -24 6 -32 10 -12 9 -16 -1 -19 -33 -10 -548
-15 -551 -5 -5 15 -137 59 -156 52 -11 -5 -13 -3 -7 7 5 9 4 11 -3 6 -7 -4
-12 -2 -12 4 0 7 -7 9 -16 6 -8 -3 -13 -2 -9 3 3 5 -11 15 -30 21 -19 6 -61
31 -92 54 l-58 42 -2 -31 c-1 -27 4 -35 34 -49 19 -9 44 -14 55 -10 13 4 18 2
14 -4 -4 -6 3 -8 16 -5 19 4 20 3 8 -7 -12 -9 -11 -10 9 -5 14 4 21 3 18 -3
-4 -5 23 -22 58 -37 36 -15 65 -30 65 -34 0 -4 -26 -4 -58 -1 -55 5 -156 -1
-302 -19 -36 -4 -54 -9 -40 -10 14 -1 31 -5 39 -10 8 -5 -63 -8 -170 -8 -101
1 -214 -3 -251 -7 l-68 -8 0 36 c0 31 3 36 24 36 14 0 27 4 30 9 7 10 81 4
156 -14 64 -15 208 -30 199 -21 -4 4 -37 9 -75 12 -71 6 -225 52 -228 68 -2
18 59 28 171 27 100 0 111 2 106 17 -4 10 -8 12 -11 4 -2 -7 -23 -12 -49 -12
l-45 0 4 40 c3 35 1 39 -15 34 -14 -4 -17 -3 -12 6 6 10 0 12 -25 7 -18 -4
-37 -7 -42 -7 -13 0 13 -24 47 -44 30 -17 29 -17 -53 -13 -81 4 -121 19 -94
36 19 11 -113 35 -145 25 -16 -4 -31 -7 -35 -6 -5 1 -8 -4 -8 -12 0 -14 20
-24 110 -51 68 -21 79 -31 46 -39 -18 -4 -42 2 -75 19 -28 13 -65 26 -83 27
-28 3 -34 -1 -36 -19 -2 -13 -8 -23 -14 -23 -7 0 -9 20 -6 55 l5 56 -44 10
c-24 6 -60 27 -80 45 -20 19 -42 34 -47 34 -6 0 -35 16 -65 34 l-54 33 29 26
c16 13 85 71 154 127 69 57 133 111 143 122 10 10 21 18 25 18 4 0 34 24 67
54 32 30 63 52 68 49 6 -3 7 -1 3 5 -11 18 -19 15 -67 -23z m11 -11 c-8 -8
-23 -20 -34 -25 -13 -7 -9 -1 9 15 34 29 43 33 25 10z m-278 -595 c-3 -56 0
-79 7 -75 14 9 261 -5 261 -14 0 -4 -91 -7 -202 -6 -179 1 -203 -1 -206 -15
-4 -23 24 -29 166 -36 119 -5 124 -4 129 16 3 12 9 21 14 21 8 0 11 -13 13
-65 1 -17 9 -20 54 -23 37 -2 52 -7 52 -18 0 -7 -3 -14 -7 -14 -5 0 -48 -7
-98 -15 -49 -8 -128 -17 -175 -21 -117 -8 -459 -85 -624 -139 -133 -44 -137
-45 -161 -28 -13 10 -25 22 -25 26 -1 25 321 135 470 161 30 5 36 10 38 34 1
25 0 25 -12 9 -13 -16 -14 -16 -20 5 -9 37 -7 108 4 108 22 0 25 2 33 23 8 21
9 21 21 5 11 -15 30 -18 130 -18 l116 0 0 80 c0 57 4 80 13 80 9 0 11 -21 9
-81z m923 6 c17 -14 24 -25 17 -25 -20 0 -72 29 -72 40 0 17 24 10 55 -15z
m1065 -151 l0 -46 -70 4 c-42 2 -70 -1 -70 -7 0 -6 27 -9 69 -7 l68 4 -1 -31
-1 -30 -82 -6 c-46 -4 -89 -5 -98 -1 -10 4 -15 21 -17 58 l-1 53 -6 -50 c-5
-45 -9 -50 -34 -53 -17 -2 -25 -8 -21 -14 21 -33 -207 35 -321 96 l-40 21 100
3 c134 4 145 0 145 -43 0 -24 6 -37 20 -45 11 -6 20 -9 20 -6 0 3 15 1 33 -4
29 -9 30 -8 12 5 -40 28 -46 37 -43 58 3 25 33 34 113 36 74 2 94 9 88 32 -5
17 1 19 66 19 l71 0 0 -46z m-896 -53 c16 -6 43 -9 61 -5 21 4 70 -4 134 -20
56 -14 105 -25 109 -24 4 1 57 -22 117 -51 109 -53 111 -54 223 -59 80 -3 112
-2 112 7 0 7 28 11 85 11 61 0 85 -3 85 -12 0 -9 4 -8 10 2 7 10 10 -8 10 -62
0 -91 -5 -108 -34 -109 -18 -1 -19 -2 -2 -6 17 -5 18 -12 13 -81 -6 -88 -13
-112 -34 -112 -31 0 -53 21 -53 51 0 28 13 46 64 87 9 7 16 19 16 27 0 16 -25
21 -34 6 -13 -20 -77 -22 -114 -3 -22 11 -71 22 -117 26 -122 11 -123 11 -127
59 -3 39 -5 42 -33 42 -19 0 -29 -5 -28 -12 4 -19 -21 -16 -85 11 -233 98
-541 167 -797 179 -47 2 -50 3 -52 32 l-2 31 222 -2 c141 -1 232 -6 251 -13z
m-531 -11 c-5 -19 -12 -20 -106 -18 -67 2 -102 7 -104 15 -4 12 34 17 159 21
52 2 56 0 51 -18z m-283 -105 l0 -55 108 0 c272 -1 562 -67 842 -194 129 -58
287 -149 270 -154 -6 -2 -73 26 -148 63 -242 119 -356 163 -567 217 -113 29
-134 31 -354 35 -141 3 -277 1 -343 -6 -113 -12 -140 -10 -97 9 19 8 12 9 -31
5 -103 -11 -285 -57 -475 -120 -334 -109 -540 -215 -795 -405 -180 -135 -285
-236 -429 -410 -119 -143 -128 -153 -112 -122 21 39 140 193 216 277 193 213
332 333 529 457 61 38 134 87 161 107 141 107 352 191 665 265 259 61 360 77
528 85 l32 1 0 -55z m-1792 33 c-2 -6 -11 -15 -19 -19 -8 -4 -74 -39 -147 -78
-118 -62 -133 -67 -130 -48 2 16 27 35 88 70 125 69 217 103 208 75z m2550
-44 c200 -45 417 -122 504 -179 38 -25 38 -26 22 -51 -14 -21 -22 -24 -48 -18
-17 4 -40 8 -52 9 -11 2 -29 8 -40 14 -62 35 -495 174 -579 185 -101 14 -105
15 -105 46 0 16 5 30 11 32 23 8 172 -12 287 -38z m932 25 c93 -2 51 -16 -52
-18 -56 -1 -68 2 -68 15 0 12 6 15 23 10 12 -3 56 -6 97 -7z m-2033 -125 c-3
-3 -12 -4 -19 -1 -8 3 -5 6 6 6 11 1 17 -2 13 -5z m727 -19 c271 -36 520 -130
864 -328 93 -53 137 -72 178 -78 55 -7 120 -42 180 -95 16 -14 43 -35 59 -46
l30 -22 -22 25 c-16 18 -23 38 -23 67 0 31 -5 44 -17 49 -10 4 -45 24 -79 45
-34 21 -70 38 -80 38 -10 1 -30 7 -43 14 -22 12 -19 13 30 8 41 -4 68 -14 112
-43 32 -22 61 -39 64 -39 9 0 147 -99 191 -138 l43 -37 -23 -45 c-13 -25 -24
-47 -25 -49 -2 -2 -13 4 -25 15 -13 10 -17 12 -11 4 6 -8 11 -19 11 -24 0 -5
45 -54 101 -110 55 -56 101 -108 101 -116 0 -8 20 -27 44 -42 63 -38 129 -134
246 -356 149 -284 167 -346 108 -382 -18 -11 -35 -20 -38 -20 -3 0 -19 35 -35
78 -33 89 -136 308 -157 335 -8 11 -20 16 -30 12 -13 -5 -10 -17 25 -73 97
-159 215 -533 258 -817 26 -169 36 -475 20 -625 -13 -123 -47 -300 -81 -429
l-22 -80 -91 -3 -90 -3 -44 -115 c-107 -285 -225 -470 -442 -694 -258 -266
-646 -501 -991 -601 l-115 -33 -3 -88 c-2 -49 -6 -92 -10 -96 -5 -5 -6 8 -4
27 3 23 0 35 -8 35 -7 0 -10 7 -6 16 3 8 2 13 -3 9 -5 -3 -18 6 -28 19 -11 13
-28 26 -39 29 -17 4 -17 5 3 6 12 0 24 5 27 9 3 5 -39 2 -92 -6 -64 -10 -190
-15 -366 -16 -159 -1 -271 -6 -273 -12 -5 -15 -110 -5 -110 11 0 10 6 11 23 5
12 -5 35 -5 51 -1 24 7 19 9 -36 15 -46 5 -61 10 -53 18 8 8 36 8 99 0 313
-41 364 -40 638 9 316 56 536 134 789 278 150 86 337 230 471 365 203 204 299
343 413 601 62 138 114 328 163 587 52 279 26 740 -57 1018 -59 195 -131 371
-141 343 -3 -7 -12 -13 -21 -13 -13 0 -12 -4 5 -22 57 -62 146 -315 183 -517
72 -397 45 -757 -84 -1128 -59 -167 -122 -297 -146 -301 -19 -3 -21 -8 -15
-40 5 -34 0 -46 -61 -137 -99 -148 -148 -209 -254 -319 -207 -215 -481 -404
-750 -519 -317 -135 -706 -203 -1015 -178 -140 12 -468 75 -473 91 -5 14 -72
13 -72 -2 0 -9 -3 -9 -12 0 -7 7 -16 8 -23 2 -22 -18 -268 125 -508 295 -264
187 -528 503 -677 811 -62 128 -133 338 -159 471 -30 149 -45 394 -36 588 l7
165 49 0 c37 0 49 -4 49 -15 0 -10 11 -15 33 -16 27 -2 28 -2 7 -7 -22 -4 -23
-5 -6 -12 11 -3 30 -4 44 -2 18 4 21 7 10 14 -9 7 -7 8 9 5 18 -4 22 1 28 29
5 29 42 71 53 60 3 -4 -12 -70 -24 -106 -4 -13 -6 -13 -14 0 -7 11 -10 8 -10
-12 0 -16 -4 -28 -10 -28 -5 0 -7 -7 -4 -15 7 -17 -11 -21 -22 -4 -3 6 -19 9
-35 5 -18 -3 -29 -1 -29 5 0 7 -11 9 -25 7 -13 -3 -23 -2 -20 1 8 13 -13 34
-29 28 -13 -5 -14 -24 -10 -129 12 -292 40 -490 91 -648 l18 -55 76 -3 75 -3
26 -52 c15 -29 58 -117 97 -197 108 -223 292 -457 489 -622 160 -134 380 -268
561 -342 130 -53 414 -109 536 -105 33 1 68 -2 78 -6 26 -11 367 1 447 15 70
12 125 25 178 42 19 5 36 7 39 5 6 -7 -112 -44 -202 -63 -239 -50 -657 -59
-860 -18 -29 6 -29 6 -13 -17 8 -13 18 -22 21 -19 4 3 12 -3 19 -12 22 -30
120 -42 353 -42 389 0 603 49 935 213 163 80 242 129 382 233 148 110 212 166
301 267 124 139 277 368 277 415 0 10 -9 20 -20 23 -21 6 -21 6 -25 41 -4 36
32 22 47 -19 4 -9 21 -22 40 -28 l33 -11 -30 26 c-22 19 -25 24 -10 19 15 -5
17 -3 9 5 -8 8 -4 25 17 64 68 126 159 419 195 633 20 117 15 416 -10 548 -36
196 -86 367 -117 401 -10 11 -19 24 -19 28 0 5 -21 53 -46 107 -57 121 -54
144 18 114 13 -5 17 -2 15 13 0 12 -5 18 -11 15 -5 -4 -7 1 -3 11 4 9 3 15 -2
11 -13 -7 -54 62 -45 76 4 8 3 9 -4 5 -6 -4 -16 4 -23 16 -16 30 -104 144
-147 190 -19 20 -32 43 -29 51 7 18 -12 48 -20 30 -2 -7 -10 -13 -17 -13 -17
0 -231 231 -231 249 0 10 -8 15 -20 13 -109 -19 -120 -14 -120 56 l0 46 -90
54 c-49 29 -157 86 -240 127 -413 204 -850 268 -1299 189 -141 -24 -184 -42
-219 -90 -40 -53 -67 -65 -141 -62 -54 2 -60 0 -87 -30 l-29 -32 0 30 c0 28
-2 29 -32 24 -38 -7 -72 -23 -179 -82 l-76 -42 -11 25 c-10 22 -8 27 21 48 18
13 93 56 167 95 168 88 199 111 105 76 -255 -93 -556 -315 -787 -581 -147
-169 -341 -455 -355 -524 -3 -16 -8 -29 -12 -29 -3 0 -26 14 -51 31 -56 37
-136 79 -173 90 -25 7 -29 4 -47 -31 -11 -22 -20 -41 -20 -43 0 -1 15 -1 33 1
35 4 151 -43 142 -58 -8 -14 42 -43 64 -37 16 4 15 -2 -9 -52 -15 -31 -46 -99
-68 -151 -21 -52 -42 -102 -46 -110 -3 -8 -5 -3 -3 11 4 25 3 26 -35 17 -22
-4 -44 -6 -49 -2 -6 3 -21 -6 -35 -21 -22 -24 -24 -25 -24 -6 0 12 -4 21 -9
21 -5 0 -11 8 -14 18 -3 13 -8 8 -20 -18 -13 -30 -13 -35 -1 -38 8 -2 14 -8
14 -13 0 -5 5 -8 12 -7 14 4 44 -55 53 -105 5 -25 4 -37 -4 -37 -6 0 -11 -13
-11 -30 0 -24 -4 -30 -22 -30 -18 0 -20 2 -9 9 12 8 9 11 -12 16 -28 7 -62
-10 -52 -25 3 -5 1 -10 -5 -12 -5 -2 -12 -105 -16 -250 -7 -232 -8 -248 -26
-248 -10 0 -18 -6 -19 -12 -2 -27 -20 62 -29 147 -5 50 -12 115 -16 145 -8 76
-14 75 -15 -1 0 -40 -3 -57 -8 -44 -12 31 -21 -31 -21 -149 0 -122 11 -229 46
-439 14 -87 23 -165 20 -173 -11 -28 -33 2 -50 69 -58 220 -83 660 -51 894 29
219 121 561 168 632 14 20 30 45 36 56 11 19 11 18 5 -4 -5 -18 -3 -22 7 -17
8 4 5 0 -6 -9 -19 -16 -19 -17 -1 -13 14 2 27 24 46 78 49 136 117 258 241
425 41 56 45 64 19 40 -33 -30 -33 -30 8 31 23 34 68 96 102 138 85 107 330
357 343 349 5 -3 7 -2 4 4 -6 10 22 41 52 58 10 6 12 4 6 -6 -7 -11 -6 -12 7
-2 8 7 18 9 22 5 4 -4 6 -1 4 7 -3 15 47 49 82 56 33 6 120 65 120 81 0 8 -2
14 -4 14 -10 0 -131 -74 -137 -83 -4 -5 -11 -8 -17 -6 -21 7 165 128 304 197
284 142 454 194 784 241 199 28 190 28 425 29 134 1 249 -4 319 -13z m1666 5
c0 -5 -2 -10 -4 -10 -3 0 -8 5 -11 10 -3 6 -1 10 4 10 6 0 11 -4 11 -10z
m-3550 -110 c0 -5 -7 -10 -16 -10 -8 0 -12 5 -9 10 3 6 10 10 16 10 5 0 9 -4
9 -10z m-50 -175 c0 -17 -2 -18 -25 -9 -13 5 -14 8 -3 15 19 13 28 11 28 -6z
m-429 -242 l20 -31 -64 -74 c-102 -118 -206 -249 -245 -310 -20 -31 -40 -57
-44 -57 -4 -1 -22 12 -40 28 l-32 29 25 38 c62 93 338 416 352 411 4 -1 17
-17 28 -34z m2424 -14 c175 -24 428 -103 631 -199 127 -60 181 -95 159 -104
-29 -11 -46 -7 -92 25 -92 64 -366 180 -526 224 -117 32 -296 56 -395 54 -48
-1 -77 3 -85 11 -10 10 12 11 108 6 66 -3 156 -11 200 -17z m-529 4 c-3 -4
-32 -10 -64 -14 -51 -7 -198 -32 -262 -45 -21 -4 -22 -4 -8 6 40 25 357 76
334 53z m2203 -328 c81 -94 211 -270 211 -286 0 -16 -16 -10 -37 14 -11 12
-51 67 -88 122 -128 189 -287 359 -314 332 -7 -7 -7 -2 1 16 l13 26 68 -67
c38 -37 103 -107 146 -157z m-2204 134 c-22 -4 -56 -8 -75 -7 -32 0 -33 1 -10
8 14 4 48 8 75 8 l50 0 -40 -9z m-1083 -43 c7 4 0 -6 -15 -23 -19 -20 -35 -29
-50 -26 -16 3 -37 -11 -82 -56 -33 -34 -56 -61 -51 -61 4 0 -25 -35 -65 -77
-220 -236 -384 -487 -514 -788 -26 -60 -51 -114 -55 -120 -4 -5 -27 -75 -50
-155 -23 -80 -51 -174 -61 -209 -10 -35 -19 -76 -19 -91 0 -16 -4 -32 -10 -35
-5 -3 -10 -1 -10 4 0 6 -5 10 -11 9 -7 -2 -15 10 -20 26 -9 33 1 160 10 133 4
-10 7 6 8 35 1 68 76 293 149 449 30 63 54 118 54 121 0 11 144 249 196 323
127 183 357 431 479 515 64 45 71 48 87 34 9 -9 22 -13 30 -8z m1438 -26 c13
0 18 4 15 11 -5 7 -2 7 11 0 11 -5 65 -17 120 -26 136 -21 262 -63 422 -141
138 -67 147 -70 138 -55 -4 5 4 7 16 3 20 -5 20 -6 4 -12 -15 -5 -1 -18 65
-59 149 -94 162 -105 252 -190 134 -129 295 -347 358 -487 16 -36 37 -68 45
-71 8 -3 43 6 76 21 34 14 63 24 65 22 2 -2 -26 -16 -62 -31 -36 -15 -65 -31
-65 -35 0 -3 19 -53 41 -111 46 -114 99 -291 99 -326 0 -14 6 -23 15 -23 12 0
15 -14 15 -64 0 -36 4 -67 9 -71 5 -3 35 4 65 16 51 19 56 23 57 52 1 26 3 28
6 8 4 -19 7 -21 14 -10 11 18 11 -17 0 -81 l-8 -45 -3 45 c-2 25 -5 35 -7 23
-4 -23 -51 -43 -99 -43 -20 0 -21 -7 -28 -123 -3 -68 -15 -157 -25 -198 -11
-41 -25 -117 -31 -169 -7 -52 -16 -104 -21 -115 -12 -26 -4 113 11 215 16 102
7 477 -13 545 -8 30 -16 44 -20 35 -4 -9 -6 -5 -5 10 0 14 -2 32 -5 40 -3 8
-8 24 -11 35 -6 21 0 -40 15 -170 24 -214 -18 -645 -63 -645 -6 0 -29 5 -51
12 l-39 12 5 70 c3 39 10 100 16 136 18 115 21 327 6 445 -25 198 -77 359
-173 537 -119 223 -247 376 -430 510 -53 40 -101 78 -105 85 -12 19 -144 84
-257 126 -160 60 -466 128 -506 113 -8 -3 -14 -13 -14 -21 0 -15 -1 -15 -16
-1 -23 24 -42 20 -37 -7 4 -21 11 -23 66 -25 105 -5 132 -14 135 -46 3 -22 -5
-36 -38 -67 -22 -21 -51 -39 -63 -39 -12 0 -45 -3 -74 -6 l-51 -6 -7 86 c-4
47 -4 120 0 162 l7 77 110 -7 c61 -4 165 -16 231 -27 120 -19 163 -19 91 0
-63 17 -172 30 -308 37 l-126 7 0 33 c0 32 0 33 45 30 25 -1 48 1 51 6 3 4 14
4 24 -2 10 -5 28 -10 40 -10z m-478 -13 c-3 -15 4 -17 65 -13 37 2 55 2 38 -1
-78 -10 -189 -36 -275 -64 -188 -61 -461 -220 -627 -366 l-63 -54 -34 26 c-54
41 -53 51 11 109 135 121 130 115 111 126 -26 16 -69 95 -62 113 5 13 11 11
31 -14 14 -16 48 -41 75 -55 l49 -25 32 20 c18 11 64 36 102 56 39 20 74 41
79 46 6 5 16 9 24 9 8 0 37 11 65 25 28 14 56 24 63 21 7 -3 51 6 98 19 170
50 224 55 218 22z m278 -91 l0 -94 -67 -7 c-197 -19 -330 -57 -518 -149 -207
-102 -399 -248 -515 -393 -76 -94 -105 -145 -140 -241 -15 -42 -46 -128 -69
-190 -22 -62 -41 -122 -41 -134 0 -17 -4 -19 -27 -13 -16 4 -79 9 -140 12
l-113 5 0 26 c1 15 27 95 59 177 51 131 57 152 45 166 -8 8 -14 23 -14 32 0
21 21 67 31 67 19 0 38 -13 32 -23 -4 -6 -1 -7 7 -2 7 4 26 37 42 72 16 35 35
66 42 69 18 7 73 -20 107 -53 l26 -24 72 90 c240 300 601 504 1025 576 49 8
93 15 97 15 5 0 9 25 9 55 0 52 1 55 25 55 25 0 25 0 25 -94z m1950 53 c0 -6
-4 -7 -10 -4 -5 3 -10 11 -10 16 0 6 5 7 10 4 6 -3 10 -11 10 -16z m54 -68
c-2 -3 -12 3 -22 13 -16 17 -16 18 5 5 12 -7 20 -15 17 -18z m-843 2 c13 -17
13 -17 -6 -3 -11 8 -22 16 -24 17 -2 2 0 3 6 3 6 0 17 -8 24 -17z m803 1 c3
-8 2 -12 -4 -9 -6 3 -10 10 -10 16 0 14 7 11 14 -7z m483 -76 c56 -59 154
-220 245 -402 86 -174 92 -195 56 -196 -4 0 2 -24 13 -52 19 -48 79 -311 79
-346 0 -9 -7 -11 -20 -7 -18 6 -20 2 -20 -37 0 -85 -3 -88 -84 -87 l-73 1 -14
66 c-9 42 -13 116 -12 195 2 119 3 129 26 157 14 16 28 26 32 22 3 -4 19 -35
35 -69 16 -35 31 -63 34 -63 4 0 -20 83 -51 180 -8 25 -17 60 -20 78 -3 17 -9
32 -13 32 -8 0 -26 58 -22 73 3 11 -92 194 -127 246 -16 25 -37 46 -45 47 -19
3 -19 -1 -5 -27 5 -11 14 -17 19 -14 5 3 12 0 16 -6 4 -8 3 -9 -4 -5 -23 14
-11 -17 57 -152 59 -117 110 -248 99 -257 -2 -1 -15 -5 -31 -9 -21 -5 -29 -2
-34 11 -43 125 -158 362 -223 458 -30 44 -48 80 -44 88 14 23 87 107 94 107 3
0 20 -15 37 -32z m-981 -137 c66 -68 95 -92 105 -86 16 10 3 -9 -34 -52 -20
-22 -20 -22 -47 -3 -15 10 -60 58 -101 106 -74 86 -81 103 -63 153 6 18 21 5
140 -118z m-1478 -18 l-3 -118 -75 -6 c-337 -28 -664 -207 -830 -456 -67 -101
-190 -355 -190 -394 0 -5 19 -9 43 -9 67 0 68 -2 51 -115 -18 -123 -21 -714
-4 -819 6 -39 31 -115 59 -180 27 -61 52 -124 56 -141 6 -27 8 -28 19 -13 11
15 22 8 97 -68 89 -90 228 -201 318 -254 68 -40 203 -84 301 -100 171 -27 155
-20 158 -70 5 -58 -16 -152 -31 -147 -8 2 -12 29 -12 70 0 37 -2 67 -5 68 -3
0 -29 2 -59 4 -140 9 -327 85 -515 208 -109 72 -301 257 -380 367 -176 244
-226 463 -207 916 6 148 12 209 24 235 9 19 27 75 41 124 28 102 70 198 129
300 61 103 81 128 171 204 228 194 456 299 749 346 l37 6 0 54 0 55 -47 0
c-79 0 -89 -6 -85 -47 5 -42 -4 -49 -73 -58 -208 -29 -595 -267 -742 -457 -72
-94 -166 -304 -197 -440 -5 -20 -11 -26 -23 -21 -11 4 -14 3 -9 -5 5 -8 -1
-12 -15 -12 -17 0 -19 3 -10 14 10 12 8 15 -12 18 l-24 3 39 105 c47 127 113
264 167 345 206 311 663 567 1079 604 10 1 12 -26 10 -116z m412 68 c411 -120
704 -348 924 -720 66 -112 114 -217 134 -296 6 -22 18 -139 27 -259 16 -210
16 -368 -1 -549 -8 -85 8 -149 42 -168 13 -7 27 -9 31 -6 3 4 12 2 19 -4 10
-8 10 -18 -1 -52 -35 -114 -112 -268 -162 -327 -15 -19 -22 -36 -19 -48 9 -26
-132 -210 -254 -332 -105 -106 -198 -169 -337 -229 -213 -93 -383 -136 -604
-153 -157 -13 -199 -28 -76 -28 210 0 530 72 700 157 111 55 253 162 397 299
36 34 80 67 99 73 l34 11 -18 -22 c-11 -13 -35 -39 -55 -58 -19 -19 -31 -32
-26 -27 6 4 14 7 18 7 12 0 -126 -118 -213 -182 -91 -67 -141 -93 -193 -101
-22 -4 -44 -12 -50 -18 -8 -9 -8 -10 1 -5 6 3 14 2 17 -2 3 -5 -6 -14 -20 -21
-33 -15 -37 -14 -30 5 3 8 2 12 -4 9 -6 -3 -10 -13 -10 -20 0 -8 -12 -17 -27
-21 -16 -3 -37 -10 -48 -15 -201 -90 -631 -160 -665 -108 -12 17 8 167 25 192
9 15 14 34 10 46 -6 21 6 25 145 37 353 31 710 234 940 534 75 98 121 182 165
305 132 364 149 768 45 1074 -148 440 -580 802 -1050 883 l-65 11 31 31 c21
21 34 46 39 74 4 23 10 42 13 42 4 0 36 -9 72 -19z m-2824 -62 l23 -21 -63
-127 c-105 -208 -204 -496 -253 -733 -18 -89 -27 -101 -62 -79 -18 12 -10 76
34 251 46 186 78 283 142 440 66 158 78 180 105 180 17 0 19 5 15 27 -5 26 16
83 30 83 4 0 17 -10 29 -21z m3746 -15 c14 -29 -2 -46 -37 -42 -21 3 -23 31
-3 56 16 18 27 15 40 -14z m-2882 -28 c0 -2 -8 -10 -17 -17 -16 -13 -17 -12
-4 4 13 16 21 21 21 13z m1765 -61 c245 -35 413 -95 585 -206 322 -208 530
-518 586 -872 20 -123 15 -389 -10 -522 -96 -512 -505 -921 -1021 -1020 -66
-13 -157 -26 -201 -30 -81 -6 -81 -6 -86 18 -5 24 -3 25 81 32 193 15 359 56
505 124 302 141 545 429 635 753 119 431 57 842 -173 1148 -200 267 -477 438
-801 494 -50 9 -108 16 -131 16 -23 0 -62 3 -88 6 -46 7 -46 7 -46 46 0 38 1
39 28 34 15 -3 77 -13 137 -21z m-1734 2 c-6 -8 -7 -18 -3 -22 4 -5 2 -6 -3
-2 -6 3 -16 -3 -23 -14 -7 -11 -8 -19 -2 -19 25 0 7 -25 -19 -26 l-29 -1 20
34 c11 18 30 40 41 48 27 19 33 19 18 2z m3170 -110 c147 -229 160 -276 21
-73 -80 118 -95 146 -73 146 3 0 27 -33 52 -73z m-3327 -6 c3 -5 -1 -11 -9
-14 -9 -4 -12 -1 -8 9 6 16 10 17 17 5z m306 -11 c0 -11 -4 -20 -9 -20 -5 0
-7 9 -4 20 3 11 7 20 9 20 2 0 4 -9 4 -20z m110 -65 c-35 -35 -66 -63 -68 -60
-4 4 119 124 128 125 2 0 -24 -29 -60 -65z m-370 38 c0 -5 -9 -19 -20 -33 -18
-23 -20 -24 -20 -4 0 20 17 44 32 44 4 0 8 -3 8 -7z m240 -11 c0 -13 -23 -32
-39 -32 -11 0 -10 4 4 20 19 21 35 26 35 12z m70 -22 c8 -16 8 -20 -3 -20 -18
0 -39 24 -30 33 11 12 22 8 33 -13z m-105 -40 c3 -5 -3 -10 -14 -10 -12 0 -21
-5 -21 -12 0 -6 -3 -9 -6 -5 -4 3 -4 13 -1 22 7 17 33 20 42 5z m3149 -147
c19 -27 23 -40 14 -50 -14 -17 -28 -17 -28 2 0 8 -4 15 -10 15 -12 0 -24 45
-15 59 9 16 12 14 39 -26z m-3828 -28 c16 -8 22 -15 13 -15 -8 0 -24 7 -35 15
-25 19 -14 19 22 0z m4709 -35 c-27 -12 -43 -12 -25 0 8 5 22 9 30 9 10 0 8
-3 -5 -9z m50 -10 c-3 -5 -11 -10 -16 -10 -6 0 -7 5 -4 10 3 6 11 10 16 10 6
0 7 -4 4 -10z m-271 -46 c16 -16 22 -34 29 -94 7 -55 41 -180 50 -180 11 0 9
16 -14 111 l-22 88 29 24 c36 31 39 27 66 -92 70 -319 94 -581 78 -875 -21
-388 -61 -572 -195 -890 -37 -90 -43 -111 -31 -118 8 -5 12 -16 9 -28 -6 -23
-14 -25 -30 -9 -13 13 -28 -8 -108 -151 -32 -58 -78 -132 -102 -165 -23 -33
-51 -71 -60 -85 -100 -139 -334 -375 -480 -484 -90 -66 -114 -88 -73 -66 16 8
20 8 20 -4 0 -8 -12 -19 -27 -24 -16 -5 -37 -13 -47 -18 -14 -5 -17 -4 -12 5
10 16 -38 -10 -214 -117 -132 -80 -146 -87 -153 -69 -4 10 -13 17 -20 13 -238
-108 -560 -192 -819 -212 l-88 -7 0 31 c0 34 -3 33 150 47 143 14 408 83 587
154 54 21 129 48 167 60 85 27 119 44 266 134 192 116 317 213 460 356 341
342 550 717 670 1202 57 235 74 365 74 594 1 211 -22 435 -45 443 -5 2 -7 8
-3 13 7 11 -14 117 -25 123 -12 8 -11 -21 4 -114 46 -288 35 -633 -31 -930
-60 -268 -112 -416 -234 -665 -227 -466 -577 -826 -1025 -1059 -105 -54 -365
-154 -515 -197 -122 -34 -384 -82 -549 -100 -135 -14 -381 -7 -521 16 -181 30
-488 121 -596 178 l-26 13 57 39 c30 21 54 44 51 50 -6 16 62 3 131 -24 28
-11 53 -17 56 -14 3 3 1 17 -4 31 -5 14 -8 31 -5 39 6 15 46 18 46 3 0 -5 10
-9 23 -7 17 2 22 -3 22 -23 0 -18 -6 -26 -22 -28 -13 -2 -23 -8 -23 -13 0 -6
-4 -7 -10 -4 -5 3 -10 2 -10 -4 0 -5 24 -18 53 -29 216 -81 484 -131 746 -139
196 -7 367 9 388 36 9 13 16 14 30 5 14 -9 42 -5 123 16 136 37 142 39 292 98
163 65 259 117 453 245 140 93 246 180 367 304 226 231 372 462 490 778 27 73
37 111 84 299 74 301 98 507 91 771 -7 233 -23 355 -73 555 -20 80 -37 149
-37 154 -2 9 32 23 60 25 6 1 19 -6 27 -15z m-2471 -256 c5 -151 -2 -1389 -8
-1396 -2 -2 -56 -4 -122 -5 l-118 -2 -8 350 c-5 193 -6 545 -2 783 l7 432 123
0 122 0 6 -162z m126 -618 l-1 -780 -47 0 -46 0 0 773 c0 424 2 775 3 780 1 4
22 7 48 7 l45 0 -2 -780z m551 600 l0 -180 -145 0 -145 0 0 180 0 180 145 0
145 0 0 -180z m1997 -12 c-3 -8 -6 -5 -6 6 -1 11 2 17 5 13 3 -3 4 -12 1 -19z
m-4384 -23 c-19 -41 -43 -46 -43 -10 0 18 5 25 19 25 11 0 23 5 26 10 15 24
13 7 -2 -25z m18 -18 c-10 -9 -11 -8 -5 6 3 10 9 15 12 12 3 -3 0 -11 -7 -18z
m4395 -61 c13 -40 13 -50 2 -57 -16 -10 -26 25 -26 96 0 28 2 41 5 30 2 -11
11 -42 19 -69z m-4028 -82 l52 -5 -1 -177 c0 -97 -3 -171 -6 -164 -2 6 -13 12
-23 12 -9 0 -23 7 -30 15 -7 8 -20 15 -29 15 -9 0 -28 6 -43 14 -15 8 -68 20
-118 27 -63 9 -94 18 -100 29 -4 8 -11 58 -14 110 -4 60 -3 88 3 75 8 -17 10
-13 16 23 l8 43 116 -6 c64 -3 140 -8 169 -11z m154 -247 c-6 -374 19 -521
128 -742 119 -242 280 -411 537 -565 67 -40 120 -77 117 -81 -2 -4 1 -11 7
-15 8 -4 9 -3 5 4 -10 17 4 14 44 -8 27 -15 31 -19 15 -20 -12 -1 -5 -7 20
-16 23 -8 55 -27 72 -43 18 -16 45 -34 60 -40 25 -9 24 -10 -12 -4 -117 17
-351 127 -489 229 -80 60 -241 206 -207 188 9 -5 12 -3 7 5 -4 6 -11 9 -15 6
-11 -6 -78 75 -129 155 -62 98 -128 245 -157 345 -52 180 -56 215 -62 529 -5
281 -4 300 13 313 10 7 25 13 34 13 14 0 15 -27 12 -253z m4155 200 c7 -20 14
-60 15 -89 l3 -53 -45 -22 c-24 -13 -39 -23 -33 -23 16 0 36 -57 36 -99 -1
-20 1 -43 4 -51 2 -8 6 -43 7 -78 3 -43 9 -69 21 -82 33 -37 7 -32 -36 7 -78
69 -75 65 -66 106 5 22 5 79 -1 139 -8 86 -13 105 -32 120 -18 14 -20 24 -15
50 8 38 87 117 113 114 10 -2 22 -18 29 -39z m-5552 -77 c-3 -5 -11 -10 -16
-10 -6 0 -7 5 -4 10 3 6 11 10 16 10 6 0 7 -4 4 -10z m390 -194 c5 -134 3
-186 -4 -181 -7 4 -11 70 -11 192 0 103 2 184 4 182 2 -2 7 -89 11 -193z m408
-13 c-4 -9 8 -13 38 -14 24 0 38 -3 30 -6 -11 -5 -11 -7 0 -14 9 -6 -7 -9 -43
-9 -31 0 -63 -2 -71 -5 -24 -10 -13 52 14 75 22 20 24 20 30 3 3 -10 4 -24 2
-30z m-53 -121 c0 -20 -4 -31 -10 -27 -5 3 -10 25 -10 48 0 31 3 38 10 27 5
-8 10 -30 10 -48z m4637 -14 c-3 -7 -5 -2 -5 12 0 14 2 19 5 13 2 -7 2 -19 0
-25z m113 -84 c0 -2 -9 0 -20 6 -11 6 -20 13 -20 16 0 2 9 0 20 -6 11 -6 20
-13 20 -16z m-4184 -105 c33 -266 132 -491 302 -695 l63 -75 -17 -27 c-10 -16
-19 -22 -22 -14 -2 6 -14 12 -26 12 -26 0 -86 66 -144 159 -20 32 -45 70 -55
84 -26 37 -125 306 -147 402 -11 44 -26 120 -33 168 l-14 88 40 -3 41 -3 12
-96z m4224 63 c0 -5 -19 -14 -41 -21 -34 -10 -43 -10 -50 1 -6 9 -1 15 19 19
41 10 72 10 72 1z m-4545 -32 c3 -5 -1 -10 -9 -10 -8 0 -18 5 -21 10 -3 6 1
10 9 10 8 0 18 -4 21 -10z m-1322 -230 c5 -4 13 -27 18 -51 9 -39 8 -46 -10
-61 -23 -18 -28 -30 -8 -23 8 4 20 -33 40 -122 29 -129 81 -298 99 -320 21
-26 1 -31 -29 -7 -30 23 -33 31 -33 77 0 52 -53 240 -62 222 -2 -6 -3 -4 -1 4
2 8 0 17 -4 20 -15 11 -45 110 -37 122 5 9 2 10 -9 6 -12 -4 -19 5 -31 41 -25
82 -26 100 -2 105 24 5 57 -2 69 -13z m1357 -7 c0 -20 -3 -24 -11 -16 -7 7 -9
19 -6 27 10 24 17 19 17 -11z m-1272 -77 c5 -3 8 -24 7 -46 -1 -22 1 -42 4
-45 4 -2 6 -16 5 -32 0 -15 4 -31 10 -35 8 -6 6 -11 -4 -18 -9 -6 -10 -10 -3
-10 6 0 19 -7 28 -16 13 -14 14 -19 3 -25 -10 -7 -10 -9 2 -9 10 0 34 -53 75
-171 33 -94 63 -173 67 -175 20 -13 13 30 -31 172 -58 190 -114 427 -103 439
3 3 18 5 34 5 24 0 28 -4 28 -30 0 -40 55 -299 86 -407 14 -48 28 -112 31
-140 3 -29 10 -50 15 -47 4 3 6 10 3 15 -3 5 1 6 9 3 12 -5 4 -15 -31 -44
l-47 -37 -19 24 c-14 17 -16 27 -8 37 6 7 8 16 4 19 -12 13 -22 7 -25 -15 -3
-21 -5 -21 -21 9 -18 34 -59 139 -83 213 -20 62 -84 385 -84 424 l0 31 19 -41
c10 -23 23 -44 29 -48z m205 47 c-7 -2 -21 -2 -30 0 -10 3 -4 5 12 5 17 0 24
-2 18 -5z m83 -61 c-6 -6 -138 -22 -143 -18 -2 1 30 14 70 28 59 21 73 23 75
11 2 -8 1 -17 -2 -21z m5484 26 c-1 -71 -99 -403 -152 -515 -24 -52 -33 -63
-54 -63 -30 0 -29 6 37 187 26 72 62 189 80 260 17 70 33 131 36 136 7 12 53
8 53 -5z m-4573 -74 c-3 -3 -12 -4 -19 -1 -8 3 -5 6 6 6 11 1 17 -2 13 -5z
m-720 -56 c-3 -8 -6 -5 -6 6 -1 11 2 17 5 13 3 -3 4 -12 1 -19z m85 -35 c17
-20 98 -174 98 -186 0 -5 -26 -7 -57 -5 l-58 3 -28 88 c-16 48 -26 94 -23 102
7 20 50 19 68 -2z m5325 -165 c-3 -8 -6 -5 -6 6 -1 11 2 17 5 13 3 -3 4 -12 1
-19z m-4447 -177 c0 -12 -30 -22 -43 -14 -7 4 -3 9 9 14 26 10 34 10 34 0z
m554 -92 c-14 -15 -13 -16 10 -16 14 0 23 3 20 8 -3 5 -1 9 4 9 5 0 12 -9 15
-21 3 -12 10 -18 17 -14 14 9 52 -24 43 -38 -3 -5 -2 -7 4 -4 5 3 50 -19 99
-49 145 -89 444 -194 627 -220 56 -7 61 -14 53 -60 -5 -25 -12 -34 -27 -34
-11 0 -22 7 -25 15 -4 9 -19 15 -35 15 -38 0 -37 19 1 26 34 7 31 24 -5 24
-13 0 -27 5 -31 11 -3 6 -15 8 -26 6 -10 -3 -33 -1 -51 5 -35 10 -120 21 -100
12 7 -3 2 -14 -13 -29 -19 -19 -31 -23 -54 -18 -17 3 -30 10 -30 15 0 5 -4 6
-10 3 -5 -3 -10 0 -10 7 0 9 -3 9 -10 -2 -6 -9 -10 -11 -10 -3 0 7 -7 10 -17
6 -12 -5 -14 -3 -8 7 5 8 4 11 -2 7 -16 -10 -104 23 -96 35 3 6 2 8 -4 5 -16
-10 -73 16 -73 34 0 17 25 43 50 52 8 3 3 5 -11 4 -24 -1 -127 47 -181 84 -14
11 -29 19 -33 19 -3 0 -28 19 -55 42 -40 35 -47 45 -43 70 3 19 -1 30 -11 34
-8 3 -17 13 -21 22 -3 9 10 2 29 -17 33 -32 34 -36 20 -52z m2386 56 c0 -21
-17 -35 -33 -29 -19 7 -19 7 -11 27 6 17 44 19 44 2z m86 -172 c-106 -132
-193 -221 -193 -199 0 8 3 14 7 13 3 -1 21 16 40 38 19 22 56 63 82 90 27 28
72 83 100 123 29 40 54 68 56 62 2 -5 -39 -63 -92 -127z m-3027 93 c-3 -3 -11
5 -18 17 -13 21 -12 21 5 5 10 -10 16 -20 13 -22z m3917 -74 c-20 -39 -40 -73
-46 -77 -11 -7 -9 -3 38 97 18 37 33 73 33 80 1 7 4 3 6 -9 2 -12 -11 -52 -31
-91z m-5266 78 c6 -11 8 -20 6 -20 -3 0 -10 9 -16 20 -6 11 -8 20 -6 20 3 0
10 -9 16 -20z m257 -8 c-11 -2 -16 -9 -13 -17 3 -8 -3 -17 -13 -20 -23 -7 -68
-55 -52 -55 7 0 9 -5 6 -10 -4 -6 -10 -8 -14 -5 -5 2 -7 -7 -5 -20 1 -14 -2
-27 -7 -31 -5 -3 -9 -14 -9 -25 0 -12 -4 -17 -11 -14 -6 4 -8 14 -5 24 4 11 2
10 -10 -4 -12 -16 -13 -22 -2 -28 7 -4 31 -19 53 -32 39 -24 40 -25 15 -32
l-25 -7 30 -13 30 -13 -35 6 c-27 4 -55 25 -117 88 -46 46 -83 80 -83 76 0 -4
10 -15 21 -26 12 -10 49 -50 82 -89 59 -68 59 -68 11 -22 -28 26 -53 45 -57
42 -4 -3 -5 -2 -2 2 3 3 -11 26 -31 49 -29 37 -33 47 -24 64 6 11 16 20 23 21
9 0 9 2 0 6 -18 7 -16 23 2 23 8 0 36 -20 63 -45 26 -25 51 -45 55 -45 4 0 5
15 2 33 -6 32 -3 37 55 85 36 31 67 49 73 45 8 -5 6 -9 -6 -11z m5273 -2 c0
-5 -2 -10 -4 -10 -3 0 -8 5 -11 10 -3 6 -1 10 4 10 6 0 11 -4 11 -10z m-29
-10 c24 -13 24 -32 2 -59 l-18 -21 -45 21 c-57 26 -57 25 -35 49 20 22 65 26
96 10z m-4026 -132 c70 -55 70 -55 44 -53 -13 1 -24 6 -24 11 0 5 -18 27 -38
49 -21 22 -47 54 -58 70 -12 17 -1 8 23 -19 23 -27 48 -53 53 -58z m2715 88
c6 -8 10 -25 8 -38 -4 -33 -52 -33 -56 0 -7 47 21 69 48 38z m-3812 -126 c14
-34 13 -35 -17 -62 -17 -15 -37 -28 -44 -28 -18 0 -55 68 -63 116 -5 36 -3 44
22 70 l29 29 29 -45 c16 -25 36 -60 44 -80z m-458 44 c0 -8 -7 -17 -15 -20
-18 -7 -20 -34 -3 -34 6 0 9 -3 5 -6 -3 -3 -15 -3 -26 1 l-21 6 20 26 c11 14
20 32 20 40 0 8 5 11 10 8 6 -3 10 -13 10 -21z m2559 0 c13 -12 -8 -10 -29 2
l-25 15 25 -7 c14 -3 27 -8 29 -10z m2801 -4 c0 -5 -7 -7 -15 -4 -8 4 -15 8
-15 10 0 2 7 4 15 4 8 0 15 -4 15 -10z m-2721 -16 c10 -9 -45 -3 -59 6 -11 7
-5 8 20 4 19 -4 37 -8 39 -10z m2644 -19 c-3 -9 -8 -14 -10 -11 -3 3 -2 9 2
15 9 16 15 13 8 -4z m-5232 -28 c-10 -9 -11 -8 -5 6 3 10 9 15 12 12 3 -3 0
-11 -7 -18z m-102 -33 c-6 -8 -15 -12 -19 -9 -4 3 -7 -3 -6 -12 0 -10 -7 -19
-16 -21 -24 -5 -23 13 4 48 17 23 24 27 35 18 10 -8 10 -14 2 -24z m2748 0
c-3 -3 -12 -4 -19 -1 -8 3 -5 6 6 6 11 1 17 -2 13 -5z m-2526 -41 c13 -16 12
-17 -3 -4 -17 13 -22 21 -14 21 2 0 10 -8 17 -17z m1718 -131 c9 -3 26 -12 39
-20 37 -24 228 -111 317 -144 123 -46 296 -87 447 -105 111 -13 135 -18 131
-30 -3 -9 -8 -11 -12 -5 -3 6 -40 12 -81 15 -162 9 -430 63 -430 87 0 4 -9 6
-20 3 -12 -3 -20 0 -20 6 0 7 -4 10 -9 6 -23 -13 -326 128 -315 147 5 8 2 9
-10 5 -19 -7 -60 15 -49 26 3 4 1 8 -5 8 -7 1 -16 2 -21 3 -19 2 -101 68 -96
77 3 5 0 6 -8 3 -15 -5 -40 19 -43 41 -1 8 36 -16 83 -52 47 -35 93 -67 102
-71z m-1544 118 c3 -5 -1 -10 -9 -10 -9 0 -16 5 -16 10 0 6 4 10 9 10 6 0 13
-4 16 -10z m-478 -30 c-6 -16 -15 -30 -20 -30 -5 0 -4 -7 3 -15 10 -13 9 -15
-9 -15 -27 0 -26 2 5 50 32 48 36 50 21 10z m279 -6 c15 -36 15 -36 -27 -92
-23 -32 -44 -59 -46 -61 -5 -7 -53 22 -53 32 0 5 23 37 50 72 28 35 50 68 50
74 0 21 11 11 26 -25z m79 -2 c-3 -3 -11 0 -18 7 -9 10 -8 11 6 5 10 -3 15 -9
12 -12z m3999 2 c3 -8 2 -13 -3 -10 -5 3 -14 -1 -21 -9 -7 -8 -20 -15 -29 -14
-11 0 -9 3 7 9 12 5 25 16 28 25 8 19 10 19 18 -1z m-444 -18 c0 -2 -7 -7 -16
-10 -8 -3 -12 -2 -9 4 6 10 25 14 25 6z m-1043 -12 c-3 -3 -12 -4 -19 -1 -8 3
-5 6 6 6 11 1 17 -2 13 -5z m-2277 -14 c0 -5 -5 -10 -11 -10 -6 0 -8 -8 -4
-19 5 -16 1 -18 -36 -14 l-41 5 7 -33 c3 -19 9 -41 11 -50 3 -10 -10 -27 -33
-45 -21 -16 -57 -46 -80 -67 -23 -21 -47 -36 -53 -32 -14 9 -13 62 3 72 6 4
32 33 56 63 81 100 124 140 154 140 15 0 27 -4 27 -10z m176 -27 c-10 -10 -19
5 -10 18 6 11 8 11 12 0 2 -7 1 -15 -2 -18z m-41 -14 c12 20 25 11 59 -41 33
-53 52 -103 35 -92 -5 3 -9 12 -9 20 0 8 -9 14 -22 14 -25 0 -118 91 -118 117
0 14 4 13 24 -6 15 -14 26 -19 31 -12z m4886 4 c13 -16 12 -17 -3 -4 -10 7
-18 15 -18 17 0 8 8 3 21 -13z m-23 -35 c16 -14 39 -31 51 -37 24 -13 29 -50
7 -47 -22 3 -137 106 -131 116 8 13 38 -1 73 -32z m-4741 -33 c87 -106 104
-132 97 -149 -6 -15 -10 -14 -40 9 -18 14 -38 25 -44 25 -6 0 -10 6 -7 13 4
12 -39 102 -69 144 -13 18 -13 21 -1 19 8 -1 37 -29 64 -61z m482 -48 c42 -40
77 -77 79 -82 7 -21 35 -43 48 -38 8 3 39 -18 75 -51 33 -31 67 -56 75 -56 28
0 193 -114 200 -138 8 -27 64 -68 171 -121 43 -22 69 -40 58 -40 -25 0 -161
77 -261 149 -42 30 -104 72 -137 93 -60 39 -60 39 -92 21 -17 -9 -37 -15 -43
-13 -26 9 -302 292 -302 309 0 18 24 39 44 40 5 0 43 -33 85 -73z m4187 24
c73 -74 103 -111 90 -111 -7 0 -6 -4 2 -9 12 -7 11 -13 -1 -37 -20 -37 -134
-179 -144 -179 -32 -2 -83 -18 -83 -25 0 -6 -7 -10 -16 -10 -9 0 -34 -18 -55
-40 -31 -32 -36 -42 -24 -46 8 -4 15 -11 15 -17 0 -6 -11 0 -25 13 -14 13 -25
33 -25 44 0 15 -3 17 -8 8 -6 -9 -22 -2 -60 28 -60 48 -60 50 17 123 28 27 51
56 51 66 0 20 66 88 77 78 3 -4 1 -7 -5 -7 -7 0 -12 -5 -12 -12 0 -6 8 -3 20
7 11 10 17 22 14 26 -3 5 1 9 10 9 8 0 24 17 37 38 39 66 64 102 70 102 4 0
29 -22 55 -49z m-4906 19 c-7 -4 -9 -14 -6 -21 4 -8 0 -5 -8 5 -22 27 -20 35
5 29 14 -4 17 -8 9 -13z m2388 5 c2 -2 -1 -29 -8 -59 -7 -37 -16 -56 -26 -56
-11 0 -14 15 -14 66 0 63 1 65 23 58 12 -3 24 -8 25 -9z m-2189 -125 c1 -3
-25 -13 -57 -23 l-57 -18 -20 25 c-11 14 -29 40 -38 58 l-18 33 21 -27 c12
-16 30 -28 41 -28 10 0 19 -5 19 -12 0 -6 6 -3 14 7 12 17 16 18 32 5 12 -11
10 -3 -8 25 -45 73 -40 80 16 20 30 -33 55 -62 55 -65z m-257 23 c8 -10 41
-56 73 -101 92 -135 206 -271 304 -365 91 -87 92 -87 66 -97 -32 -12 -130 -2
-165 16 -35 19 -70 50 -70 63 0 6 -6 12 -12 12 -46 5 -56 7 -76 18 -24 13
-128 134 -230 268 l-61 81 72 61 c40 33 75 61 78 61 3 0 13 -8 21 -17z m2730
-8 c12 -16 9 -123 -3 -130 -18 -12 -24 4 -29 74 -4 56 -2 68 10 67 8 -1 18 -5
22 -11z m668 -15 c0 -5 -4 -10 -10 -10 -5 0 -10 5 -10 10 0 6 5 10 10 10 6 0
10 -4 10 -10z m-30 -18 c0 -4 -15 -13 -32 -21 -18 -7 -51 -21 -73 -31 -38 -17
-66 -26 -110 -36 -11 -2 7 9 40 25 33 17 67 30 75 31 8 1 29 10 45 20 32 20
55 25 55 12z m-3036 -40 c13 -15 16 -29 11 -50 -5 -24 -2 -33 17 -46 12 -9 38
-16 57 -16 l34 0 -7 -56 c-6 -53 -5 -56 13 -51 21 5 44 -16 96 -86 l28 -38
-33 -34 c-19 -19 -37 -35 -40 -35 -11 0 -203 192 -259 259 -37 45 -49 67 -42
74 16 16 13 40 -3 34 -13 -5 -45 19 -35 26 15 11 63 27 80 27 11 0 22 7 25 15
7 17 29 8 58 -23z m100 -23 c-3 -5 4 -9 15 -9 10 0 21 5 23 12 3 8 6 7 10 -3
3 -9 1 -16 -5 -16 -7 0 -36 -10 -64 -22 -29 -11 -53 -18 -53 -15 0 15 56 70
67 66 7 -2 10 -8 7 -13z m4076 8 c0 -2 -12 -14 -27 -28 l-28 -24 24 28 c23 25
31 32 31 24z m-1383 -43 c-3 -3 -12 -4 -19 -1 -8 3 -5 6 6 6 11 1 17 -2 13 -5z
m-2612 -44 c-3 -5 -11 -10 -16 -10 -6 0 -7 5 -4 10 3 6 11 10 16 10 6 0 7 -4
4 -10z m187 -163 c62 -60 69 -69 57 -85 -7 -9 -15 -19 -16 -21 -2 -3 -38 29
-81 70 -42 41 -95 89 -116 106 l-39 32 33 20 33 20 29 -37 c16 -20 61 -67 100
-105z m3852 37 c3 -8 2 -12 -4 -9 -6 3 -10 10 -10 16 0 14 7 11 14 -7z m-3582
-121 c18 -15 35 -30 38 -33 3 -3 18 -16 34 -28 28 -21 28 -22 6 -22 -13 0 -46
11 -74 24 -29 14 -65 27 -81 31 -17 3 -5 -5 26 -18 30 -13 67 -32 81 -41 14
-9 39 -18 57 -19 17 -1 31 -6 31 -12 0 -5 31 -28 70 -49 38 -22 68 -41 66 -43
-2 -3 -28 9 -58 26 -30 17 -60 31 -66 31 -14 0 -29 -93 -15 -97 6 -2 19 -10
29 -19 15 -11 10 -11 -24 2 -37 14 -65 16 -177 10 -87 -5 -135 -3 -140 3 -3 6
2 22 11 36 13 19 25 25 58 27 37 1 37 2 9 5 -18 2 -33 8 -33 13 0 12 43 40 67
45 10 2 20 4 23 5 3 1 25 2 50 2 l45 0 -51 8 c-57 8 -130 45 -139 68 -6 16 -1
20 59 55 42 23 59 22 98 -10z m1065 1 c-3 -3 -12 -4 -19 -1 -8 3 -5 6 6 6 11
1 17 -2 13 -5z m-1403 -53 l27 -28 -19 -32 c-10 -17 -22 -28 -27 -23 -4 4 -5
-1 -2 -10 5 -15 0 -14 -31 6 -26 17 -36 30 -35 45 3 20 40 71 53 71 3 0 19
-13 34 -29z m-457 -83 c25 -26 30 -39 26 -61 l-6 -28 -35 33 c-38 37 -92 106
-92 120 0 15 74 -29 107 -64z m303 -38 c0 -5 -5 -10 -11 -10 -5 0 -7 5 -4 10
3 6 8 10 11 10 2 0 4 -4 4 -10z m35 0 c3 -5 2 -10 -4 -10 -5 0 -13 5 -16 10
-3 6 -2 10 4 10 5 0 13 -4 16 -10z m941 -148 c-5 -4 -216 95 -216 101 0 3 49
-18 110 -46 60 -28 108 -53 106 -55z m-855 81 c13 -16 12 -17 -3 -4 -17 13
-22 21 -14 21 2 0 10 -8 17 -17z m3989 -26 c0 -2 -12 -14 -27 -28 l-26 -24 19
27 c16 23 34 36 34 25z m-3352 -73 c-5 -5 -98 45 -98 52 0 2 23 -7 51 -22 28
-14 49 -27 47 -30z m-475 2 c18 -7 45 -27 61 -44 38 -41 30 -43 -110 -40
l-109 3 49 48 c53 51 61 54 109 33z m144 2 c-5 -15 -55 -14 -71 2 -7 7 3 10
33 10 30 0 41 -4 38 -12z m163 -12 c0 -13 -6 -27 -12 -29 -7 -3 -1 -6 13 -6
14 -1 50 -13 80 -27 127 -62 241 -114 249 -114 5 0 12 -5 16 -11 10 -17 -24
-4 -174 69 l-137 67 -96 -3 c-92 -3 -97 -2 -102 19 -6 21 -4 22 66 16 43 -3
62 -2 47 3 -14 4 -37 8 -52 9 -44 2 -33 19 15 24 91 8 87 9 87 -17z m430 14
c8 -5 11 -10 5 -10 -5 0 -17 5 -25 10 -8 5 -10 10 -5 10 6 0 17 -5 25 -10z
m-119 -66 c164 -73 375 -144 519 -172 224 -45 239 -47 450 -57 299 -14 543 -6
673 21 20 4 27 2 27 -10 0 -9 -10 -18 -22 -21 -20 -4 -172 -25 -184 -25 -2 0
-4 -9 -4 -19 0 -11 -8 -22 -17 -24 -14 -4 -12 -5 5 -6 22 -1 30 -25 12 -36 -6
-4 -24 -4 -40 0 -24 5 -30 12 -30 32 0 19 -4 24 -16 19 -9 -3 -27 -6 -40 -6
-15 0 -24 -6 -24 -15 0 -11 -11 -15 -40 -15 -22 0 -40 4 -40 9 0 13 26 32 33
24 4 -3 7 -1 7 5 0 17 -35 15 -50 -3 -10 -12 -40 -15 -134 -17 l-121 -2 120
-6 c66 -3 108 -7 94 -8 -34 -3 -47 -30 -16 -34 16 -2 23 -11 25 -30 3 -24 0
-28 -22 -28 -16 0 -26 6 -26 14 0 23 -17 28 -33 11 -14 -13 -18 -12 -36 11
-12 15 -21 30 -21 35 0 9 -19 15 -76 24 l-41 6 -6 -48 c-5 -45 -4 -50 28 -80
18 -18 38 -33 43 -33 11 0 82 -89 82 -103 0 -5 -19 7 -42 28 -83 72 -138 130
-138 145 0 8 -9 30 -20 48 -26 42 -26 42 10 42 17 0 30 5 30 10 0 10 -14 14
-38 11 -10 -2 -12 6 -7 27 6 30 6 30 -52 36 -97 12 -284 46 -363 67 -115 31
-348 109 -415 139 -134 61 -175 81 -175 85 0 8 1 7 131 -51z m2429 36 c0 -3
-13 -13 -29 -22 -26 -14 -32 -14 -42 -2 -9 11 -7 16 12 23 25 9 59 10 59 1z
m-3305 -79 c31 -29 54 -55 52 -58 -3 -2 -17 7 -32 21 -16 15 -34 26 -42 26 -7
0 -16 8 -20 18 -3 9 -18 30 -32 46 -22 25 -23 27 -4 14 12 -8 47 -38 78 -67z
m1170 49 c13 -5 14 -9 5 -9 -8 0 -24 4 -35 9 -13 5 -14 9 -5 9 8 0 24 -4 35
-9z m60 -20 c13 -6 15 -9 5 -9 -8 0 -22 4 -30 9 -18 12 -2 12 25 0z m-682 -60
c28 -19 88 -52 132 -75 76 -39 80 -44 89 -84 8 -39 14 -45 67 -71 66 -34 89
-61 89 -107 0 -29 -3 -32 -37 -36 -33 -4 -32 -4 7 -3 l45 1 -3 43 c-2 23 -1
42 3 42 4 0 25 -16 47 -35 21 -20 50 -41 63 -47 19 -9 22 -15 15 -33 -8 -20
-5 -25 21 -34 16 -5 29 -14 29 -19 0 -5 12 -9 26 -9 14 0 45 -14 67 -30 33
-22 43 -36 45 -62 6 -58 -8 -57 -127 5 l-110 57 15 31 15 31 -19 -24 c-20 -25
-76 -38 -87 -21 -4 6 1 7 12 3 10 -3 15 -2 10 2 -6 7 -17 10 -60 14 -5 1 -6 5
-3 10 3 5 -10 11 -28 13 -45 5 -40 0 38 -42 61 -32 81 -50 56 -50 -16 0 -168
78 -175 90 -3 6 3 10 16 10 12 0 20 3 16 6 -3 3 -19 3 -35 0 -21 -5 -28 -12
-28 -29 1 -12 6 -25 11 -29 6 -4 -21 -8 -59 -8 -38 0 -66 3 -63 7 4 3 0 17 -8
29 -14 22 -14 23 23 26 20 2 -3 4 -53 5 -96 2 -146 12 -153 31 -2 8 5 10 25 7
52 -10 338 -22 357 -15 23 8 -103 20 -214 20 -93 0 -148 9 -128 21 10 7 9 9
-4 9 -10 0 -18 4 -18 10 0 5 -6 7 -14 4 -8 -3 -23 -1 -33 6 -16 10 -14 11 8 6
19 -4 29 -1 33 9 4 11 22 15 67 15 53 0 62 3 66 20 8 32 33 5 33 -36 0 -24 5
-34 15 -34 8 0 15 9 15 21 0 59 45 74 129 44 52 -18 44 -2 -12 27 -23 11 -82
47 -130 80 -48 32 -109 68 -135 80 l-47 21 33 8 c17 5 47 13 65 17 32 8 32 8
-17 15 -27 4 -58 7 -70 6 -19 -1 -18 -2 4 -9 20 -6 14 -8 -28 -9 -29 -1 -51 3
-48 8 3 4 -1 16 -8 26 -12 17 -13 14 -12 -22 0 -23 -2 -44 -4 -46 -3 -3 -64
-7 -137 -8 -137 -3 -151 0 -174 42 -8 17 -6 18 20 13 43 -9 67 2 51 21 -11 13
-7 15 21 15 l34 1 -25 13 -25 14 30 5 c17 3 94 4 173 2 l142 -2 53 -33z m848
12 c-7 -2 -18 1 -23 6 -8 8 -4 9 13 5 13 -4 18 -8 10 -11z m62 -9 c-7 -2 -19
-2 -25 0 -7 3 -2 5 12 5 14 0 19 -2 13 -5z m1587 3 c0 -2 -9 -6 -20 -9 -11 -3
-18 -1 -14 4 5 9 34 13 34 5z m723 -15 c6 -24 -19 -36 -39 -20 -12 10 -11 14
3 25 24 18 30 17 36 -5z m-786 -7 c-3 -3 -12 -4 -19 -1 -8 3 -5 6 6 6 11 1 17
-2 13 -5z m-50 -20 c-3 -3 -12 -4 -19 -1 -8 3 -5 6 6 6 11 1 17 -2 13 -5z
m203 -44 c-8 -5 -19 -10 -25 -10 -5 0 -3 5 5 10 8 5 20 10 25 10 6 0 3 -5 -5
-10z m-2225 -20 c8 -13 -25 -13 -45 0 -12 8 -9 10 12 10 15 0 30 -4 33 -10z
m1828 3 c-7 -2 -19 -2 -25 0 -7 3 -2 5 12 5 14 0 19 -2 13 -5z m-2287 -64
c-28 -8 -36 -2 -36 27 l0 26 28 -24 c28 -22 28 -23 8 -29z m2211 45 c-3 -3
-12 -4 -19 -1 -8 3 -5 6 6 6 11 1 17 -2 13 -5z m-1802 -46 c36 -18 65 -36 65
-39 0 -4 -11 -10 -25 -13 -36 -9 -93 18 -105 49 -17 45 -18 45 65 3z m209 -3
c11 -8 18 -17 15 -19 -2 -3 -15 4 -29 14 -14 11 -20 20 -15 19 6 0 19 -6 29
-14z m-500 -78 c9 -34 8 -36 -16 -30 -34 9 -47 22 -43 44 3 12 -2 19 -13 20
-14 0 -13 2 3 8 25 10 61 -12 69 -42z m561 12 c50 -15 102 -31 118 -35 28 -6
33 -19 18 -43 -13 -20 -71 -5 -71 19 0 10 -6 18 -12 17 -41 -1 -58 5 -59 21
-1 11 -4 9 -9 -8 -4 -14 -8 -20 -9 -15 -1 6 -24 9 -53 8 -29 -2 -47 0 -40 3
17 8 15 24 -3 24 -8 0 -15 -4 -15 -10 0 -5 -5 -10 -11 -10 -5 0 -8 4 -4 9 3 6
-4 15 -15 21 -11 6 -18 15 -15 20 3 4 -1 11 -7 13 -47 19 114 -11 187 -34z
m-663 -12 l-4 -44 -37 7 c-20 3 -56 20 -79 38 l-43 31 43 4 c24 2 61 4 83 5
l40 2 -3 -43z m2996 -8 c2 -13 -26 -31 -105 -69 -59 -29 -125 -64 -145 -76
-36 -23 -43 -24 -160 -17 l-123 7 55 11 c75 16 162 49 240 93 36 19 85 44 110
53 57 22 124 21 128 -2z m-1273 -59 c-10 -11 -22 -17 -26 -14 -5 3 -12 -2 -15
-10 -7 -19 -54 -22 -54 -3 0 25 17 38 61 45 53 10 57 8 34 -18z m-1074 -22
c-9 -41 -27 -47 -33 -9 -4 24 0 31 16 34 12 2 22 5 22 6 1 0 -1 -13 -5 -31z
m91 -23 c44 -32 47 -37 41 -67 -3 -18 -7 -34 -8 -36 -4 -5 -125 51 -125 58 0
15 31 80 38 80 4 0 28 -16 54 -35z m53 15 c3 -6 -1 -7 -9 -4 -18 7 -21 14 -7
14 6 0 13 -4 16 -10z m-11 -29 c-2 -3 -12 3 -22 13 -16 17 -16 18 5 5 12 -7
20 -15 17 -18z m716 -17 c0 -14 9 -39 21 -55 11 -16 17 -29 12 -29 -10 0 -83
49 -83 56 0 11 33 54 41 54 5 0 9 -12 9 -26z m120 -27 c0 -2 -10 -12 -22 -23
l-23 -19 19 23 c18 21 26 27 26 19z m-1530 -36 c104 -4 102 -11 -3 -11 -76 0
-87 2 -87 18 0 10 3 13 8 7 4 -6 41 -12 82 -14z m1443 -116 c-3 -9 -8 -14 -10
-11 -3 3 -2 9 2 15 9 16 15 13 8 -4z m-242 -29 c1 -6 1 -15 0 -20 -1 -5 4 -13
11 -17 8 -6 9 -9 2 -9 -15 0 -30 19 -36 47 -4 16 -2 20 8 16 8 -3 15 -10 15
-17z m-1313 7 c-10 -2 -26 -2 -35 0 -10 3 -2 5 17 5 19 0 27 -2 18 -5z m896
-108 c3 -8 1 -15 -4 -15 -6 0 -10 7 -10 15 0 8 2 15 4 15 2 0 6 -7 10 -15z"/>
<path d="M4528 8338 c-2 -40 -2 -75 0 -78 2 -2 49 -5 105 -6 92 -2 96 -1 37 6
-60 7 -57 7 37 6 55 0 96 2 90 6 -7 4 16 8 50 8 75 0 93 6 93 32 0 19 -5 19
-135 13 -75 -3 -142 -8 -150 -12 -12 -4 -15 4 -15 40 0 50 -8 57 -70 57 l-38
0 -4 -72z"/>
<path d="M4493 8365 c0 -22 2 -30 4 -17 2 12 2 30 0 40 -3 9 -5 -1 -4 -23z"/>
<path d="M5940 8288 c17 -19 371 -148 383 -141 5 3 -20 15 -55 28 -35 13 -110
41 -168 63 -102 39 -170 60 -160 50z"/>
<path d="M4938 8123 c17 -2 47 -2 65 0 17 2 3 4 -33 4 -36 0 -50 -2 -32 -4z"/>
<path d="M4828 8113 c12 -2 32 -2 45 0 12 2 2 4 -23 4 -25 0 -35 -2 -22 -4z"/>
<path d="M5360 7970 c19 -5 75 -16 125 -25 261 -49 563 -180 840 -365 79 -53
105 -65 122 -59 22 8 71 -18 162 -87 31 -24 48 -31 55 -24 26 26 -190 170
-254 170 -8 0 -89 41 -180 92 -188 104 -381 191 -521 236 -119 38 -283 72
-341 71 l-43 -1 35 -8z"/>
<path d="M4260 7901 c-87 -31 -405 -173 -419 -187 -2 -2 -2 -7 2 -10 3 -3 90
32 194 79 187 84 284 120 356 133 20 3 40 10 43 15 12 21 -78 5 -176 -30z"/>
<path d="M4918 7759 c-111 -9 -324 -48 -393 -73 -73 -26 -12 -30 99 -7 254 54
551 66 783 32 281 -42 456 -97 746 -236 68 -33 84 -29 29 8 -150 99 -439 204
-682 246 -215 38 -370 46 -582 30z"/>
<path d="M6790 7465 c13 -14 26 -25 28 -25 3 0 -5 11 -18 25 -13 14 -26 25
-28 25 -3 0 5 -11 18 -25z"/>
<path d="M6900 7264 c0 -16 45 -55 55 -47 4 5 6 1 3 -7 -2 -8 14 -37 36 -65
23 -28 72 -96 110 -152 39 -57 74 -99 80 -96 6 4 6 8 -2 11 -7 2 -12 10 -12
18 0 8 -9 24 -20 36 -11 12 -39 54 -62 92 -23 39 -62 96 -87 126 -25 30 -46
56 -47 58 -1 2 -10 5 -19 6 -9 1 -21 9 -26 17 -5 8 -9 9 -9 3z m99 -97 l25
-32 -32 29 c-33 31 -37 36 -24 35 4 0 18 -14 31 -32z"/>
<path d="M6802 6911 c-10 -6 -9 -11 4 -22 12 -9 15 -10 10 -1 -14 23 9 12 24
-12 8 -13 33 -50 56 -83 22 -32 71 -111 108 -175 37 -65 70 -118 72 -118 11 0
-92 187 -156 282 -76 115 -99 141 -118 129z"/>
<path d="M7212 6835 c12 -25 26 -45 30 -45 12 0 10 7 -12 50 -28 55 -45 50
-18 -5z"/>
<path d="M2856 6471 c-3 -5 1 -11 9 -14 9 -4 12 -1 8 9 -6 16 -10 17 -17 5z"/>
<path d="M2796 6455 c-3 -9 0 -15 9 -15 16 0 20 16 6 24 -5 3 -11 -1 -15 -9z"/>
<path d="M2924 6451 c4 -6 16 -16 28 -22 15 -8 18 -8 14 0 -4 6 -16 16 -28 22
-15 8 -18 8 -14 0z"/>
<path d="M2647 6060 c-3 -13 0 -20 8 -20 7 0 12 7 11 15 -4 24 -13 27 -19 5z"/>
<path d="M2612 5880 c0 -14 2 -19 5 -12 2 6 2 18 0 25 -3 6 -5 1 -5 -13z"/>
<path d="M2602 5805 c0 -16 2 -22 5 -12 2 9 2 23 0 30 -3 6 -5 -1 -5 -18z"/>
<path d="M2592 5730 c0 -19 2 -27 5 -17 2 9 2 25 0 35 -3 9 -5 1 -5 -18z"/>
<path d="M3471 4215 c85 -151 316 -378 454 -447 47 -24 44 -20 -95 99 -102 88
-234 220 -333 333 -46 52 -47 53 -26 15z"/>
<path d="M5876 7075 c9 -14 25 -25 36 -25 12 0 16 -4 12 -11 -5 -8 1 -10 20
-7 14 3 26 1 26 -3 0 -5 -5 -9 -12 -9 -6 0 16 -17 49 -39 33 -21 77 -56 99
-78 32 -32 153 -113 169 -113 3 0 -4 16 -15 35 -11 19 -19 38 -19 42 4 21
-242 178 -339 216 l-42 17 16 -25z"/>
<path d="M6801 6155 c1 -19 18 -51 18 -35 0 8 -4 22 -9 30 -5 8 -9 11 -9 5z"/>
<path d="M6821 6084 c0 -11 3 -14 6 -6 3 7 2 16 -1 19 -3 4 -6 -2 -5 -13z"/>
<path d="M6840 6050 c0 -21 -2 -22 -11 -10 -9 12 -10 12 -5 -3 16 -49 46 -178
46 -197 0 -12 4 -19 9 -16 5 4 12 -12 16 -34 4 -25 12 -40 21 -40 19 0 19 1
-16 132 -37 143 -59 203 -60 168z m13 -40 c3 -11 1 -18 -4 -14 -5 3 -9 12 -9
20 0 20 7 17 13 -6z"/>
<path d="M3627 6396 c-4 -10 -1 -13 9 -9 15 6 19 23 5 23 -5 0 -11 -7 -14 -14z"/>
<path d="M7557 6968 c3 -15 9 -26 13 -23 4 3 7 -3 6 -11 0 -9 7 -18 17 -19 24
-4 21 5 -12 45 -29 35 -29 35 -24 8z"/>
<path d="M6433 4305 c0 -8 4 -12 9 -9 5 3 6 10 3 15 -9 13 -12 11 -12 -6z"/>
<path d="M6186 3152 c-3 -6 -1 -14 5 -17 14 -9 20 -2 10 14 -6 8 -11 9 -15 3z"/>
<path d="M4977 4733 c-12 -11 -8 -23 8 -23 8 0 15 7 15 15 0 16 -12 20 -23 8z"/>
<path d="M4235 4430 c10 -11 20 -20 23 -20 3 0 -3 9 -13 20 -10 11 -20 20 -23
20 -3 0 3 -9 13 -20z"/>
<path d="M4480 4311 c0 -8 50 -34 56 -29 1 2 -11 11 -27 20 -16 9 -29 14 -29
9z"/>
<path d="M2212 4906 c7 -8 15 -12 17 -11 5 6 -10 25 -20 25 -5 0 -4 -6 3 -14z"/>
<path d="M2350 4197 c0 -2 18 -20 40 -41 23 -21 40 -33 38 -25 -5 22 -78 84
-78 66z"/>
<path d="M2390 4116 c0 -2 8 -10 18 -17 15 -13 16 -12 3 4 -13 16 -21 21 -21
13z"/>
<path d="M3678 3163 c6 -2 18 -2 25 0 6 3 1 5 -13 5 -14 0 -19 -2 -12 -5z"/>
<path d="M3561 3096 c12 -10 59 -15 59 -6 0 5 -14 10 -32 10 -17 0 -29 -2 -27
-4z"/>
<path d="M3658 3073 c7 -3 16 -2 19 1 4 3 -2 6 -13 5 -11 0 -14 -3 -6 -6z"/>
<path d="M5360 2610 c-12 -8 -11 -10 5 -9 11 1 31 5 45 9 24 8 24 8 -5 9 -16
0 -37 -4 -45 -9z"/>
<path d="M3745 2710 c3 -5 12 -10 18 -10 7 0 35 -11 62 -25 28 -15 41 -19 30
-9 -18 14 -99 54 -111 54 -3 0 -2 -4 1 -10z"/>
<path d="M3681 2466 c2 -2 30 -7 63 -11 41 -5 56 -3 52 4 -4 6 -32 11 -63 11
-31 0 -54 -2 -52 -4z"/>
<path d="M4102 2438 c-17 -17 34 -48 78 -46 30 1 31 2 8 5 -16 2 -28 9 -28 15
0 10 -29 37 -40 38 -4 0 -11 -5 -18 -12z"/>
<path d="M4058 2423 c7 -3 16 -2 19 1 4 3 -2 6 -13 5 -11 0 -14 -3 -6 -6z"/>
<path d="M3853 2343 c9 -2 25 -2 35 0 9 3 1 5 -18 5 -19 0 -27 -2 -17 -5z"/>
<path d="M5066 9012 c-7 -12 37 -52 94 -87 112 -70 220 -142 275 -184 133
-103 164 -121 203 -121 38 0 63 10 64 26 3 32 11 44 24 33 10 -8 11 -6 1 15
-16 35 -25 33 -33 -9 -3 -19 -12 -35 -18 -35 -7 0 -37 18 -67 39 -30 22 -85
59 -124 83 -38 23 -142 89 -230 145 -155 100 -178 112 -189 95z"/>
<path d="M4460 8971 l-35 -29 28 -11 c43 -17 47 -14 47 29 0 22 -1 40 -3 40
-1 0 -18 -13 -37 -29z"/>
<path d="M5052 8899 c-23 -23 -42 -39 -42 -35 0 3 -8 -1 -17 -8 -97 -79 -143
-119 -143 -123 0 -2 11 4 24 14 13 10 67 50 119 88 52 39 100 78 106 88 19 30
-2 19 -47 -24z"/>
<path d="M5633 8910 c-38 -23 -43 -54 -12 -70 26 -14 67 0 99 36 19 19 21 26
10 39 -17 21 -59 19 -97 -5z"/>
<path d="M5115 8860 c-3 -11 -9 -20 -13 -20 -4 0 -23 -14 -42 -31 -22 -19 -27
-26 -12 -19 20 10 28 5 70 -37 27 -26 81 -68 121 -93 40 -25 88 -57 108 -73
46 -35 103 -36 103 -1 0 13 7 24 17 26 18 3 -87 91 -233 195 -103 73 -111 77
-119 53z"/>
<path d="M5570 8830 c-12 -8 -12 -10 2 -15 20 -8 41 2 33 16 -8 11 -16 11 -35
-1z"/>
<path d="M4503 8791 c-14 -23 -8 -31 24 -31 18 0 23 5 23 25 0 30 -29 34 -47
6z"/>
<path d="M5020 8699 c-22 -18 -22 -19 -3 -10 12 6 25 16 28 21 9 15 3 12 -25
-11z"/>
<path d="M4928 8644 c-16 -8 -28 -17 -28 -19 0 -10 16 -4 40 15 30 23 25 25
-12 4z"/>
<path d="M5092 8620 c0 -14 2 -19 5 -12 2 6 2 18 0 25 -3 6 -5 1 -5 -13z"/>
<path d="M5550 8636 c0 -3 21 -19 48 -36 40 -27 42 -27 17 -5 -32 28 -65 49
-65 41z"/>
<path d="M5226 8575 c-3 -8 0 -17 6 -21 6 -4 8 -3 4 4 -3 6 2 12 11 14 16 3
17 4 1 10 -10 4 -18 1 -22 -7z"/>
<path d="M5528 8570 c5 -13 19 -25 31 -27 24 -3 20 3 -22 36 -16 13 -17 12 -9
-9z"/>
<path d="M5919 8527 c6 -6 11 -26 11 -44 0 -38 1 -38 41 -17 41 21 34 44 -20
60 -30 9 -40 9 -32 1z"/>
<path d="M3728 8473 l-218 -3 0 -87 0 -86 43 7 c23 3 106 9 185 12 128 6 142
6 142 -9 0 -10 -5 -17 -12 -17 -6 0 -9 -2 -6 -5 9 -10 38 7 38 22 0 8 4 12 9
9 30 -19 79 70 53 96 -15 15 -42 2 -42 -21 0 -13 -12 -24 -37 -34 -45 -17 -53
-11 -53 46 0 51 20 57 176 57 81 0 123 4 119 10 -4 6 -43 9 -93 8 -48 -2 -185
-4 -304 -5z m92 -100 l0 -46 -101 7 c-56 3 -105 9 -110 12 -5 3 -9 16 -9 29 0
21 6 24 73 33 39 5 89 10 110 11 l37 1 0 -47z"/>
<path d="M3150 8358 c-47 -50 -76 -86 -65 -81 36 20 177 178 153 172 -2 0 -41
-41 -88 -91z"/>
<path d="M6293 8423 c9 -2 23 -2 30 0 6 3 -1 5 -18 5 -16 0 -22 -2 -12 -5z"/>
<path d="M3760 8264 l-65 -13 65 5 c35 3 71 10 80 14 20 12 5 11 -80 -6z"/>
<path d="M3628 8243 c7 -3 16 -2 19 1 4 3 -2 6 -13 5 -11 0 -14 -3 -6 -6z"/>
<path d="M2803 8009 c-35 -22 -46 -37 -15 -20 22 13 58 40 52 41 -3 0 -20 -10
-37 -21z"/>
<path d="M3250 7960 c13 -23 20 -26 20 -6 0 8 -7 16 -15 20 -13 4 -14 2 -5
-14z"/>
<path d="M3133 7944 c-48 -24 -167 -127 -171 -148 -2 -10 -1 -29 2 -42 l6 -24
31 35 c17 19 59 55 95 80 40 29 64 53 64 65 0 13 5 17 15 14 10 -4 15 0 15 15
0 25 -14 26 -57 5z"/>
<path d="M7421 7824 c0 -11 3 -14 6 -6 3 7 2 16 -1 19 -3 4 -6 -2 -5 -13z"/>
<path d="M7360 7822 c0 -14 39 -46 47 -39 3 4 -4 16 -17 27 -26 22 -30 24 -30
12z"/>
<path d="M2885 7770 c2 -4 -24 -33 -58 -66 l-62 -59 55 60 55 60 -68 -65 c-63
-61 -79 -79 -58 -66 5 3 -24 -29 -65 -71 -40 -43 -71 -79 -68 -82 2 -2 -3 -16
-12 -30 -14 -22 -10 -20 21 9 46 42 41 22 -15 -59 -46 -68 -28 -80 23 -15 70
88 268 301 292 314 29 15 31 27 10 57 -13 18 -61 31 -50 13z"/>
<path d="M2481 7547 l-25 -32 27 24 c17 15 33 22 47 18 17 -4 19 -3 9 9 -17
21 -31 16 -58 -19z"/>
<path d="M7710 7572 c0 -5 7 -15 15 -22 8 -7 15 -8 15 -2 0 5 -7 15 -15 22 -8
7 -15 8 -15 2z"/>
<path d="M2529 7513 c-1 -4 -1 -11 0 -15 0 -5 -4 -8 -10 -8 -5 0 -8 -4 -5 -9
3 -4 -4 -17 -15 -27 -12 -10 -25 -28 -31 -39 -5 -11 7 -2 26 20 48 53 59 72
46 80 -5 3 -11 3 -11 -2z"/>
<path d="M2220 7285 c58 -61 119 -118 135 -129 l30 -18 -24 26 c-23 24 -23 26
-7 53 l17 28 -20 -22 c-10 -13 -23 -23 -27 -23 -5 0 -54 44 -109 98 l-100 97
105 -110z"/>
<path d="M2404 7308 c-4 -7 -14 -24 -22 -38 -14 -24 -13 -24 3 -5 20 24 37 55
31 55 -3 0 -8 -6 -12 -12z"/>
<path d="M7900 7265 c-16 -19 -2 -38 19 -26 9 6 10 14 4 25 -9 16 -11 16 -23
1z"/>
<path d="M8000 7160 c20 -13 43 -13 35 0 -3 6 -16 10 -28 10 -18 0 -19 -2 -7
-10z"/>
<path d="M2202 7008 c-119 -167 -140 -201 -92 -148 32 36 136 182 184 258 53
85 15 38 -92 -110z"/>
<path d="M2242 7131 c-11 -7 -11 -9 2 -14 10 -4 16 -1 16 8 0 17 -1 17 -18 6z"/>
<path d="M8001 7088 c12 -24 30 -56 41 -71 11 -15 21 -38 22 -51 3 -26 45
-100 53 -92 3 3 -2 15 -11 28 -20 28 -20 38 -1 38 25 0 17 29 -11 42 -14 7
-43 41 -66 80 -45 76 -59 90 -27 26z"/>
<path d="M8020 6926 c0 -2 8 -10 18 -17 15 -13 16 -12 3 4 -13 16 -21 21 -21
13z"/>
<path d="M8077 6880 c26 -30 83 -65 83 -52 0 13 -28 36 -47 38 -8 2 -24 11
-36 21 l-22 18 22 -25z"/>
<path d="M8167 6811 c-4 -17 -3 -21 5 -13 5 5 8 16 6 23 -3 8 -7 3 -11 -10z"/>
<path d="M8427 6682 c-21 -23 -22 -76 -1 -96 24 -25 76 1 88 44 8 29 7 35 -13
51 -29 24 -53 24 -74 1z"/>
<path d="M2107 6643 c-3 -17 0 -33 9 -43 12 -12 14 -10 14 15 0 45 -16 64 -23
28z"/>
<path d="M8335 6558 c-22 -11 -41 -21 -42 -22 -1 -1 -4 -15 -7 -31 -5 -28 -4
-27 44 20 65 64 65 64 5 33z"/>
<path d="M2001 6134 c0 -11 3 -14 6 -6 3 7 2 16 -1 19 -3 4 -6 -2 -5 -13z"/>
<path d="M2180 6097 c-6 -23 -17 -61 -24 -85 -12 -37 -12 -44 0 -49 28 -11 41
7 53 69 7 34 14 70 17 79 3 11 -3 18 -16 22 -16 4 -21 -2 -30 -36z"/>
<path d="M1881 6094 c0 -11 3 -14 6 -6 3 7 2 16 -1 19 -3 4 -6 -2 -5 -13z"/>
<path d="M2240 6100 c0 -5 5 -10 10 -10 6 0 10 5 10 10 0 6 -4 10 -10 10 -5 0
-10 -4 -10 -10z"/>
<path d="M1869 6045 l-4 -30 -92 -3 c-59 -2 -93 -7 -93 -14 0 -14 177 -5 192
10 5 5 8 22 6 38 l-4 29 -5 -30z"/>
<path d="M1945 6013 c-4 -16 -8 -36 -10 -45 -2 -10 2 -18 8 -18 7 0 12 18 12
45 1 52 -2 56 -10 18z"/>
<path d="M8536 5897 c3 -10 9 -15 12 -12 3 3 0 11 -7 18 -10 9 -11 8 -5 -6z"/>
<path d="M8565 5840 c9 -16 18 -30 21 -30 2 0 -2 14 -11 30 -9 17 -18 30 -21
30 -2 0 2 -13 11 -30z"/>
<path d="M8600 5780 c6 -11 13 -20 16 -20 2 0 0 9 -6 20 -6 11 -13 20 -16 20
-2 0 0 -9 6 -20z"/>
<path d="M8645 5700 c9 -16 18 -30 21 -30 2 0 -2 14 -11 30 -9 17 -18 30 -21
30 -2 0 2 -13 11 -30z"/>
<path d="M8248 5688 c-27 -9 -28 -11 -28 -93 0 -67 3 -84 16 -89 13 -5 15 -2
9 11 -19 46 -12 58 36 61 61 4 97 -11 105 -44 9 -33 -9 -70 -98 -207 -103
-159 -75 -155 60 8 37 44 86 102 109 129 46 51 52 66 28 66 -8 0 -33 20 -56
44 -29 32 -50 46 -72 48 -26 2 -33 8 -35 28 -2 14 -11 31 -20 38 -18 14 -18
14 -54 0z"/>
<path d="M2175 5638 c-3 -24 -5 -88 -3 -143 3 -86 5 -100 21 -103 16 -3 17 9
17 142 0 120 -3 146 -14 146 -10 0 -17 -15 -21 -42z"/>
<path d="M8680 5640 c6 -11 13 -20 16 -20 2 0 0 9 -6 20 -6 11 -13 20 -16 20
-2 0 0 -9 6 -20z"/>
<path d="M2208 5333 c7 -3 16 -2 19 1 4 3 -2 6 -13 5 -11 0 -14 -3 -6 -6z"/>
<path d="M1622 5310 c0 -14 2 -19 5 -12 2 6 2 18 0 25 -3 6 -5 1 -5 -13z"/>
<path d="M1641 5224 c0 -11 3 -14 6 -6 3 7 2 16 -1 19 -3 4 -6 -2 -5 -13z"/>
<path d="M1652 5185 c0 -11 3 -29 8 -40 11 -25 11 1 0 35 -6 20 -8 21 -8 5z"/>
<path d="M8105 5170 c-3 -5 -2 -10 4 -10 5 0 13 5 16 10 3 6 2 10 -4 10 -5 0
-13 -4 -16 -10z"/>
<path d="M1671 5117 c-2 -17 52 -196 91 -301 82 -224 236 -562 283 -621 15
-19 15 -18 2 10 -33 68 -245 615 -271 699 -4 10 -12 16 -20 13 -11 -4 -23 22
-49 101 -20 59 -36 103 -36 99z"/>
<path d="M8516 4877 c-3 -12 -6 -24 -6 -27 0 -3 54 -3 120 -1 l120 3 0 -53 c0
-64 15 -55 25 14 l7 47 -121 0 c-99 0 -121 3 -121 14 0 25 -17 27 -24 3z"/>
<path d="M8362 4805 c2 -25 9 -31 41 -38 26 -6 47 -6 64 2 38 17 22 36 -33 39
-26 2 -55 8 -62 15 -11 9 -13 5 -10 -18z"/>
<path d="M8230 4670 c0 -12 5 -18 10 -15 6 3 10 1 10 -4 0 -6 5 -11 11 -11 18
0 5 45 -13 48 -13 2 -18 -3 -18 -18z"/>
<path d="M8497 4664 c-4 -4 23 -39 61 -78 37 -39 86 -93 109 -121 23 -27 45
-47 48 -43 3 3 -35 52 -86 109 -124 140 -124 141 -132 133z"/>
<path d="M8276 4348 c-57 -152 -63 -174 -42 -136 20 33 97 249 94 260 -2 5
-25 -51 -52 -124z"/>
<path d="M2106 4437 c3 -10 9 -15 12 -12 3 3 0 11 -7 18 -10 9 -11 8 -5 -6z"/>
<path d="M8096 4295 c-9 -26 -7 -32 5 -12 6 10 9 21 6 23 -2 3 -7 -2 -11 -11z"/>
<path d="M7877 4026 c-3 -8 -2 -18 3 -21 13 -8 24 15 12 27 -6 6 -11 4 -15 -6z"/>
<path d="M7741 4021 c-30 -8 -35 -20 -16 -44 13 -18 14 -18 39 0 42 30 27 58
-23 44z"/>
<path d="M8183 4017 c-4 -7 -9 -30 -10 -53 -3 -35 1 -43 27 -62 32 -24 80 -45
80 -36 0 4 -13 23 -28 43 -47 59 -53 74 -36 92 13 15 13 17 -6 22 -11 3 -23 0
-27 -6z"/>
<path d="M7946 3944 c-17 -38 -14 -56 6 -36 7 7 22 12 35 12 28 0 30 21 5 43
-25 23 -26 22 -46 -19z"/>
<path d="M7795 3933 c-39 -21 -16 -29 24 -8 17 8 31 18 31 20 0 10 -26 4 -55
-12z"/>
<path d="M7867 3888 c-24 -13 -21 -35 8 -54 24 -16 26 -16 45 6 22 25 26 35
10 25 -6 -3 -13 0 -16 9 -8 20 -27 26 -47 14z"/>
<path d="M8011 3811 c-17 -30 8 -55 47 -46 40 8 45 16 26 43 -19 27 -60 29
-73 3z"/>
<path d="M8117 3711 c-4 -17 -3 -21 5 -13 5 5 8 16 6 23 -3 8 -7 3 -11 -10z"/>
<path d="M1887 3663 c-12 -11 -8 -33 6 -33 7 0 13 9 14 20 2 20 -8 26 -20 13z"/>
<path d="M7997 3623 c-54 -86 -168 -286 -164 -289 2 -2 14 15 27 39 13 23 51
83 85 132 72 104 100 155 85 155 -5 0 -20 -17 -33 -37z"/>
<path d="M1990 3600 c41 -16 92 -39 113 -51 38 -21 38 -21 26 -1 -8 13 -47 32
-103 51 -115 39 -134 39 -36 1z"/>
<path d="M2303 3622 c-8 -5 0 -23 28 -59 40 -54 48 -78 27 -86 -9 -3 -8 -10 6
-23 10 -11 16 -14 12 -7 -4 7 0 26 9 43 16 31 16 32 -17 69 -18 21 -37 45 -43
54 -6 10 -15 14 -22 9z"/>
<path d="M2256 3404 c-8 -22 1 -31 16 -16 9 9 9 15 1 23 -7 7 -12 5 -17 -7z"/>
<path d="M7980 3375 c-14 -8 -48 -21 -76 -30 -52 -15 -83 -38 -66 -49 6 -3 12
1 16 9 3 8 12 15 20 15 9 0 41 12 73 27 39 19 58 23 61 15 6 -19 22 -14 22 8
0 23 -15 25 -50 5z"/>
<path d="M2433 3337 c11 -34 15 -37 37 -31 14 4 32 6 40 5 61 -8 93 0 74 18
-5 6 -32 6 -64 0 -52 -8 -56 -7 -77 19 l-21 27 11 -38z"/>
<path d="M7672 3302 c-34 -39 -59 -73 -55 -75 5 -3 31 4 60 15 46 17 53 23 59
52 3 18 4 44 2 56 -3 20 -11 14 -66 -48z"/>
<path d="M2310 3324 c0 -10 124 -152 138 -158 9 -4 10 -1 5 8 -11 20 -143 158
-143 150z"/>
<path d="M7970 3299 c-7 -12 -31 -43 -53 -68 -23 -25 -29 -35 -13 -21 38 34
90 100 83 106 -3 3 -11 -4 -17 -17z"/>
<path d="M6775 3150 c-3 -5 -1 -10 4 -10 6 0 11 5 11 10 0 6 -2 10 -4 10 -3 0
-8 -4 -11 -10z"/>
<path d="M7560 3081 c0 -11 80 -71 94 -71 13 1 -72 80 -85 80 -5 0 -9 -4 -9
-9z"/>
<path d="M7443 2946 c-56 -56 -117 -115 -137 -131 -26 -23 -32 -35 -25 -45 8
-12 31 7 112 91 105 108 175 190 160 187 -4 0 -54 -47 -110 -102z"/>
<path d="M2770 2888 c62 -65 116 -115 119 -113 2 3 2 6 0 8 -3 1 -56 51 -119
112 l-115 110 115 -117z"/>
<path d="M7570 2888 l-43 -53 48 47 c27 26 47 50 44 53 -3 3 -25 -19 -49 -47z"/>
<path d="M2596 2892 c-8 -13 269 -231 279 -220 3 3 -34 34 -82 71 -49 36 -102
78 -119 94 -65 59 -72 64 -78 55z"/>
<path d="M7800 2865 c13 -14 26 -25 28 -25 3 0 -5 11 -18 25 -13 14 -26 25
-28 25 -3 0 5 -11 18 -25z"/>
<path d="M7624 2778 l-29 -33 33 29 c17 17 32 31 32 33 0 8 -8 1 -36 -29z"/>
<path d="M7395 2760 c-16 -16 -26 -32 -23 -35 3 -3 11 1 17 9 7 8 19 12 27 9
16 -6 31 24 17 38 -6 6 -20 -2 -38 -21z"/>
<path d="M2926 2739 c16 -20 31 -34 33 -32 3 2 -10 18 -29 36 l-34 32 30 -36z"/>
<path d="M7559 2723 l-24 -28 28 24 c15 14 27 26 27 28 0 8 -8 1 -31 -24z"/>
<path d="M6558 2733 c6 -2 18 -2 25 0 6 3 1 5 -13 5 -14 0 -19 -2 -12 -5z"/>
<path d="M7499 2673 l-24 -28 28 24 c15 14 27 26 27 28 0 8 -8 1 -31 -24z"/>
<path d="M6633 2675 c-17 -7 -33 -11 -36 -9 -7 7 -57 -18 -57 -28 0 -4 5 -8
11 -8 13 0 111 41 124 52 14 12 -5 9 -42 -7z"/>
<path d="M7084 2652 c-6 -4 -13 -19 -16 -34 -4 -23 -2 -25 16 -19 20 7 231 -3
291 -14 l30 -5 -30 20 c-26 17 -47 20 -147 20 -111 0 -118 1 -118 20 0 21 -8
25 -26 12z"/>
<path d="M6956 2631 c-18 -7 -19 -18 -17 -182 1 -96 -1 -187 -4 -202 l-7 -27
-397 -3 -396 -2 413 -3 412 -2 0 140 0 140 30 -6 c27 -6 30 -4 30 18 0 13 5
29 11 35 8 8 6 11 -7 10 -16 -2 -19 5 -18 46 0 49 -7 55 -50 38z m24 -41 c0
-5 -5 -10 -11 -10 -5 0 -7 5 -4 10 3 6 8 10 11 10 2 0 4 -4 4 -10z"/>
<path d="M7439 2623 c-13 -16 -12 -17 4 -4 16 13 21 21 13 21 -2 0 -10 -8 -17
-17z"/>
<path d="M2749 2593 c81 -113 151 -182 138 -137 -3 11 -11 38 -17 60 -8 33
-16 43 -38 49 -15 3 -41 17 -59 31 -41 31 -49 30 -24 -3z"/>
<path d="M3107 2480 c1 -77 6 -141 10 -143 4 -1 10 45 13 102 5 101 6 104 29
108 34 5 39 13 17 27 -10 6 -26 19 -35 29 -32 35 -36 20 -34 -123z"/>
<path d="M6323 2602 c-23 -9 -45 -21 -50 -25 -4 -5 17 1 47 13 30 12 57 24 59
26 9 8 -15 2 -56 -14z"/>
<path d="M5765 2490 c3 -5 8 -10 11 -10 2 0 4 5 4 10 0 6 -5 10 -11 10 -5 0
-7 -4 -4 -10z"/>
<path d="M2991 2472 c-6 -11 -11 -30 -11 -42 0 -34 34 -21 38 14 5 37 -13 55
-27 28z"/>
<path d="M7304 2408 c-4 -7 -14 -23 -22 -35 -14 -22 -13 -23 17 -23 28 0 31 3
31 29 0 33 -14 48 -26 29z"/>
<path d="M5564 2370 c-27 -10 -55 -50 -47 -63 4 -6 10 -4 17 5 6 8 24 18 39
22 15 3 25 11 22 16 -3 6 5 10 19 10 14 0 26 5 26 10 0 12 -47 12 -76 0z"/>
<path d="M7261 2336 c2 -2 22 -6 44 -9 28 -5 34 -4 20 3 -19 8 -73 14 -64 6z"/>
<path d="M5367 2279 c-9 -6 -15 -15 -11 -20 4 -6 11 -5 21 3 8 6 24 14 36 15
33 5 33 13 1 13 -16 0 -37 -5 -47 -11z"/>
<path d="M6130 2259 c-14 -11 -33 -27 -43 -35 -9 -7 -21 -14 -26 -14 -4 0 -22
-13 -39 -30 -18 -16 -36 -30 -41 -30 -5 0 -14 -7 -21 -15 -21 -26 1 -17 69 27
42 28 66 38 69 30 2 -6 8 -12 14 -12 7 0 6 5 -1 14 -10 11 -6 22 20 50 35 41
35 44 -1 15z"/>
<path d="M5315 2240 c-3 -5 -2 -10 4 -10 5 0 13 5 16 10 3 6 2 10 -4 10 -5 0
-13 -4 -16 -10z"/>
<path d="M5450 2246 c0 -2 7 -7 16 -10 8 -3 12 -2 9 4 -6 10 -25 14 -25 6z"/>
<path d="M3110 2230 c0 -5 5 -10 11 -10 5 0 7 5 4 10 -3 6 -8 10 -11 10 -2 0
-4 -4 -4 -10z"/>
<path d="M3708 2213 c23 -2 59 -2 80 0 20 2 1 4 -43 4 -44 0 -61 -2 -37 -4z"/>
<path d="M3903 2213 c9 -2 23 -2 30 0 6 3 -1 5 -18 5 -16 0 -22 -2 -12 -5z"/>
<path d="M4118 2203 c7 -3 16 -2 19 1 4 3 -2 6 -13 5 -11 0 -14 -3 -6 -6z"/>
<path d="M3773 2193 c9 -2 25 -2 35 0 9 3 1 5 -18 5 -19 0 -27 -2 -17 -5z"/>
<path d="M3121 2164 c0 -11 3 -14 6 -6 3 7 2 16 -1 19 -3 4 -6 -2 -5 -13z"/>
<path d="M3703 2163 c26 -2 67 -2 90 0 23 2 2 3 -48 3 -49 0 -68 -1 -42 -3z"/>
<path d="M4005 2164 c46 -7 233 -9 229 -2 -3 5 -60 7 -127 7 -67 -1 -113 -3
-102 -5z"/>
<path d="M5898 2119 c-21 -11 -42 -29 -49 -40 -9 -18 -7 -25 15 -47 14 -14 28
-23 32 -19 7 7 45 119 42 123 -2 1 -20 -6 -40 -17z"/>
<path d="M5634 1927 c-210 -159 -352 -275 -441 -360 l-72 -70 -38 29 c-21 15
-58 45 -83 65 -207 172 -280 227 -286 217 -4 -7 3 -18 17 -27 13 -9 55 -41 94
-72 38 -30 87 -66 108 -80 37 -26 37 -26 17 -44 -27 -24 -26 -27 14 -49 18
-10 51 -35 72 -56 36 -35 54 -42 54 -20 0 4 -23 25 -50 45 -28 21 -48 40 -45
43 5 5 87 -56 93 -70 2 -4 8 -8 13 -8 13 0 109 72 109 82 0 15 200 178 463
377 122 92 154 122 130 120 -5 0 -81 -55 -169 -122z"/>
<path d="M5030 1945 c7 -8 17 -15 22 -15 6 0 5 7 -2 15 -7 8 -17 15 -22 15 -6
0 -5 -7 2 -15z"/>
<path d="M5795 1928 c-16 -12 -73 -56 -125 -98 -52 -42 -167 -130 -255 -195
-88 -65 -162 -120 -165 -122 -2 -2 2 -8 10 -13 17 -10 97 51 92 70 -1 6 2 9 8
5 6 -3 92 58 191 137 99 79 205 161 235 183 49 37 65 55 47 55 -5 0 -21 -10
-38 -22z"/>
<path d="M4540 1936 c0 -2 8 -10 18 -17 15 -13 16 -12 3 4 -13 16 -21 21 -21
13z"/>
<path d="M4600 1897 c0 -3 23 -24 50 -47 51 -42 69 -49 28 -10 -29 27 -78 63
-78 57z"/>
<path d="M4870 1551 c0 -5 12 -11 27 -14 26 -5 26 -4 8 9 -22 16 -35 18 -35 5z"/>
<path d="M5170 1426 c-19 -12 -43 -22 -52 -20 -21 3 -23 -15 -4 -41 13 -18 14
-18 41 3 15 12 34 22 41 22 8 0 12 11 11 30 -1 16 -2 30 -2 30 0 0 -16 -11
-35 -24z"/>
</g>
</svg>
